<?xml version="1.0" encoding="utf-8"?>
<!-- Generator: Adobe Illustrator 22.0.1, SVG Export Plug-In . SVG Version: 6.00 Build 0)  -->
<svg version="1.1" id="map" xmlns="http://www.w3.org/2000/svg" xmlns:xlink="http://www.w3.org/1999/xlink" x="0px" y="0px"
	 viewBox="0 0 965 496" style="enable-background:new 0 0 965 496;" xml:space="preserve">
<style type="text/css">
	.st0{fill:#A2DDF5;}
	.st1{fill:#F6F0EF;}
	.st2{opacity:0.5;fill:#231F20;stroke:#231F20;stroke-miterlimit:10;enable-background:new    ;}
	.st3{fill:#872574;}
</style>
<rect id="background" x="-3.3" y="-1.9" class="st0" width="972.2" height="498.6"/>
<g id="land">
	<path class="st1" d="M928.9,7.9c-1.4,0.9,2.4,4,3.3,4.9c3.4,3.8,5.9,4.8,10.8,5.5c5.5,0.9,10.8,4.2,16.6,3.9c0.3-4.4-4.8-6-8.2-7
		c-5.6-1.6-12.6-9.5-18.9-6.6h0.9C931.9,9.4,930.1,7.2,928.9,7.9z"/>
	<path class="st1" d="M260.8,31.5c-3.2,0.6-3.6-4.5-3.8-6.6c-0.4-3.8-1.1-3.6-4.3-4.6c-2.8-0.9-2.5-2.1-4.4-4.1
		c-2,1.4-4.2-1.4-5.5-2.4c2.9-1.3-1.4-4-2.1-5.1c-1.6-2.2-1.5-4.9-3.1-7c-3.3-4.3-10.8-1.7-14.7-6.8l-17.1-2.3
		c-0.1,2.6,1.8,6.6,2.9,8.8c1.2,2.3,1.8,1.5,4,2.1c1.4,0.4,2.6,1.5,4.1,1.2c0.1,1.8-1.5,4.2,1.3,5c1.6-2.5,2.3-1.5,3.8-0.9
		c2.4,1.1,1.6,0.6,2.3,3.1c0.1,0.1,0.9,2.8,0.9,2.8c0.9,1,1.1,0.3,2.6,0.9c0.6,0.3,5.3,1.8,5.6,2.3c1.1,1.8-0.8,1.8-0.9,2.8
		c-0.1,1.9-0.3,2,1.4,4.1c1.9-0.6,1.3-1.6,3.5-1.7c1.3-0.1,2.2,2.1,4.1,0.5c0.2-0.1,2.3-7,3.3-2.8c0.4,2-3.7,4.4-4.5,6.2
		c1.7,0.6,2.3,2.3,4.1,3.1c1.4,0.6,2.9,0.4,4.3,1C252.9,32.7,261.8,41.3,260.8,31.5z"/>
	<path class="st1" d="M986.2-6.4c-78.1,0.2-156.3,0.3-234.4,0.5C621.4-5.6,491-5.3,360.6-5c-38.9,0.1-77.8,0.2-116.8,0.3
		c0.4,1.8,0.7,3.7,0.9,5.5c1.4-0.5,2.9-0.8,4.4-0.8c0.7,3.8-4.1,6-0.4,10.2c4.3,5,4.6-5.9,7.5-5.2c1.1,0.2,0,7.5-0.6,8.1
		c-1.8,2.1,3.2,2.2,2.8,4.7c2.6-0.1,3.1-5,5.3-6c0.6,2.5-0.8,4.9-0.1,7.4c1-1,2.1-1.8,3.3-2.6c0.8,1.8-1.5,3.7-2,5.2
		c-1,2.8,4.4,3,5.3,5.4c2.1,5.3,0.5,8.7,4.5,12.7c1.6,1.6-1.1,3.3-1.9,4.2c-1.8,1.9,0.1,4.4,0.9,6.2c1.6,3.6-2.4,9.2-7,7.1
		c2.4-4.3,1.5-2.6-2-3.1c0.4-2.5,0.3-5.5,2-7.5c1.1-1.4,3.6-2.9,3.3-5.1c-5.9,1.3-10.4-1.1-15.7-3.2c-6.2-2.5-6.9-2-4.6,3.5
		c1.1,2.5,1.5,5.6,2,8.2c0.7,4.1,3.3,5,4.6,8.2c0.8,2.4-2.5,3.5,1.5,6.3c-4-3-2.7,3.8-1,5.1c1.8,1.4,5.5,0.6,6.5,3.1
		c-7.2,1.1-7.4-1.4-8.2,6.3c-0.9,6.8-1.2,14.9-0.9,21.9c0.2,2.4,1.7,6.4-0.1,8.4c-1.2,1.4,1.1,3.1,0,5.4c-4,8.2-8,13.3-2.2,22.5
		c3.1,5,2.9,11.9,1.7,17.6c-0.6,2.7-4.1,3.7-3.2,7.1c0.8,3,3.9,4.9,5.5,7.4c4.1,5.9,2.2,14.3,5.5,20.8c1.2,2.4,9.2,7.8,9.2,9.9
		c-0.7-5.7,9-7,12.6-4.7c4.3,2.8-7.2,3.3-8.5,3.8c0.9,2.4,2.6,4.6,3,7.2c-6.7-8.8-10.8,1.7-4.1,4.8c1.5,0.6,8-0.4,5.8,3.3
		c-3.3,5.5,1.4,5.6,4.4,9.6c2.9,3.8,6,8.4,8.1,12.7c2,4.3,1.6,9.6,7.5,10.2c6.1,0.8,6.1-1.2,10.8,3.5c2.4,2.4,8.1,0.6,7.6,5.5
		c7.3-4.3,17.9,20.3,19.8,24.7c2.2,5.1,5,10,7.1,15.1c1.9,4.3,3.2,12.2,7.1,15c5,3.5,6.9,6,10,11.2c1.4,2.4,3.6,3.1,5.4,5
		c2.4,2.6-0.3,2.5-0.9,4.4c-0.7,2.1,5,6.4,0.6,5.8c-1.8-0.3-8.9-4.7-10-1.6c-0.1,0.4,7.1,7,7.9,7.2c2.9,0.8,3.5,3.4,6,4.5
		c2.5,1,6-1.2,8-2.3c-0.2,5.5,4.1,7.4,7.9,10.4c6,4.7,0.5,10.9,3.3,16.3c2.2,4.1,9,7.6,12.4,10.7c2.3,2.1,3.5,5.1,6.3,6.8
		c3.5,2.2,3,3.7,5.3,6.8c6.7-4.2,4.1-13.1-2.6-15.9c0.4,3.1-1.6,3.3-3.5,1.5c-3-3-1.2-7.1-3-10.6c-3.9-7.3-5.2-18.6-11.7-23.8
		c0.6,1.3,0.7,2.5,0.2,3.8c-2.2-0.4-10.4-16.1-11.2-18.2c-1.2-3.4-1.3-6.5-4.5-8.7c-1.1,0-3.7-3.3-4-4c-2.7-6.6-10.8-8.1-11.6-15.3
		c-0.4-4.1-1.1-7.7-3.3-11.1c-0.9-1.4-3.4-11.4-3.3-13c2,0.3,7.7,8,9.1,3.6c1-3,8.3,4.6,10.1,4.8c1.7,0.2,5.3,6.8,5.4,8.7
		c0.1,4.6,3.7,11.5,6.8,14.9c3.2,3.5,3.2,9.8,6.3,13.8c2.1,2.8,5,4.7,7.7,7c2-2,3.6-1.4,5.7,0.6c1,1,0.5,3.6,1.3,4.9
		c1.4,2.3,4.2,3.3,5.6,5.7c1.8,3,2.3,1.4,5.7,2.5c4,1.2,3.3,4.8,5.3,7.5c-2.6-3.6-5.3,3.6-4.2,6.3c0.5,1.1,4.4,2,5.9,3.4
		c1.7,1.7,4.2,1.8,6.2,3.1c2.5,1.7,1,3.1,2.2,5.2c2,3.9,6.8,23.4,9.8,26.7c2.2,2.4,6.5,9.9,10.9,16c-0.5,1.7-0.3,3.7,0.6,5.1
		c0.6,1,1.6,1.7,2.3,2.5c2.8,3.1,3.1,8.1,0.9,11.6c-0.4,0.6-0.8,1.1-0.9,1.8c-0.3,1.3,0.7,2.5,1.7,3.4c4.3,4.2,9.2,7.7,14.5,10.5
		c2.5,1.3,5.2,2.6,6.7,5c0.6,1,1,2.2,1.6,3.2c2.7,5,9.3,5.9,14.9,6.5c1.6,0.2,3.1,0.4,4.6,1c2.1,0.9,3.9,2.5,5.7,3.9
		c4.1,3.1,8.9,4.9,13.6,6.8c3.1,1.2,6.2,2.4,9.3,3.6c2.7,1,5.3,2.1,8,3.1c2.9,1.8,5.8,3.4,8.7,5c0.7,0.4,1.5,0.8,2.3,0.9
		c1.1,0.2,2.3-0.2,3.5-0.3c3.8-0.2,6.8,3.1,10.4,4.1c7.3,2,14-5.5,21.7-5.9c-0.5-0.7-1.4-1.1-2.2-0.9c-0.1-1.1,0.3-2.7,1.5-2.6
		c0.3,1.2,1.8,1.8,2.9,1.2c2,2.5,5.2,4.5,8.4,4c-2.4-0.8-5.1-1.8-6-4.2c6.5,2.1,12.2,6.7,15.8,12.6l96.2,0.2c4.3-0.5,8.7-0.9,13-1.4
		c0.6-2-1.7-3.8-3.8-4.2c-2.1-0.4-4.4-0.1-6.2-1.1c-0.6-0.3-1.2-0.8-1.9-1c-1-0.2-1.9,0.2-2.9,0.4c-2.8,0.7-6-0.1-8.1-2.1
		c0.2,1.1-0.9,2.1-1.9,2.6c-5.1,2.5-11.1,1.2-16.6,0.3c-1.7-0.3-3.7-0.5-5.2,0.4c-0.7,0.4-1.3,1.1-2.1,1.4c-2.4,0.9-5.2-2.1-7.3-0.7
		c-0.4,0.3-0.7,0.6-1.2,0.8c-1.3,0.5-2.5-1.3-2.1-2.7c0.4-1.4,1.7-2.2,2.9-3.1c1.6-1.2,3-2.7,4.2-4.4c0.7-1,1.3-2.2,1.1-3.4
		c-0.1-0.9-0.7-1.8-1-2.6c-1.6-5,5-10.8,1.9-15.1c-0.9,0.2-2,0-2.8-0.6c0.3-3,1.9-5.8,4.2-7.7c-1.3,3.7,0,7.7,1.3,11.4
		c2.6-4.7,3.6-10.2,2.7-15.5c-0.1-0.8-0.3-1.7-0.2-2.5c0.2-1,0.8-1.8,1.2-2.7c0.9-1.8,1-3.9,1.8-5.7c1.9-4.5,7.5-6.9,8.7-11.7
		c-1.2-2.2-2.5-4.4-3.7-6.6c-1,1.5-3,2-4.8,1.8s-3.5-0.9-5.3-1.2c-4.5-0.8-9,1-13.5,1.8c-2.9,0.5-5.9,0.6-8.8,1.4s-5.7,2.5-6.9,5.2
		c-1.8,4.1,0.5,9.1-1,13.3c-2.4-0.4-3.4,2.7-4.3,4.9c-1.4,3.2-4.6,5.6-8.1,6c-1,1.4,3,1.7,3,3.4c0,0.3-0.1,0.5-0.2,0.8
		c-0.9,1.6-3.1,2.2-4.9,1.9c-1.8-0.3-3.6-1.1-5.4-1.5c-5.6-1.3-11.1,1.7-16.5,3.6s-12.4,2.6-16-1.8c-0.8-1-1.4-2.2-2.5-2.7
		c-1.8-0.9-4,0.2-5.8-0.5c-1.2-0.5-2-1.7-2.6-2.8c-5.7-9.7-10.4-20-14.1-30.7c0.1,0,0.2,0,0.3,0c0.5-5.1-9.4-41.5-7.9-46.5
		c1.6-5.1,3.6-10.2,4.6-15.4c1.1-5.6-3.9-7.4-3.6-11.9c0.2-3.6-3.3-5.5-2.7-8.3c5.1,3.9,8.3-1,3.2-4.1c-2.8-1.7,1.8-2.3,2.6-2.3
		c2.7,0.2,1.2-6.5,5.3-5.5c3,0.7,1.7-3.2,2-4.2c0.7-2.1,7.1,1.1,8.7,0.3c3.2-1.6,5.2-3.6,7.6-6.3c3.8-4.1-1.2-3.9,0.6-7.9
		c2.1,1.5,4.7-2.6,6.2-1.6c0.4,1.1,0.3,2.2-0.3,3.4c2.3,0,5.7,0.3,7-2.1c0.7-1.3,1.2-3.6,3.3-2.5c-0.8,1.5-1.6,3.1-2.3,4.6
		c6.8,0.3,13.2,0.5,20,0.9c-1.1-9.2,8.2-0.6,10.6-1.1c-0.6,2.8,0.1,7.4,4.5,6.4c1.9-0.4,2.3-3.1,4.6-2.6c2.1,0.4,1.7,3,4.4,1.8
		c-0.4-1.9-2.5-2.9-1.4-5c0.9-0.2,16.6,9,12.4,3.3c-1-1.2-8.6-1.7-6.5-4.6c0.6-0.7,3.1-6.5,0.2-4c-3.2,2.7-3.5-0.6-6.9-0.8
		c-3.1-0.2-0.5-5.1,2.4-3.3c4.7,3,5.7-0.6,10.3-1.3c2.5-0.4,5.1,1.1,7.5-0.4c1.6-0.9,2.2-3,3.8-3.9c3.9-2.4,4.5,6.3,7.5,4.4
		c3.5-2.1,3-1.7,6.5-1c5.6,1.1,8.7-1.4,14.3,2.4c0.6,0.4,4,6.8,3.4,6.7c9.4,0.5,15.2-10.8,22.3,0c2.3,3.4,5.9,6.3,7.8,9.9
		c3,5.9-1.9,10.1-0.8,15.4c0.2,0,6.5-7.6,4.4-0.5c-0.9,2.8-3.2,11,1.4,12c-0.4-2.2,0.9-2.7,3.8-1.4c-1.6,1.7-1.9,3.7-1.1,5.9
		c0,0.1,2.4-5.1,3.1-3.2c0.5,1.5-0.6,5.5-0.4,7.3c0.4,3,4.7,5.5,6.3,8.2c1.3,2.3,1.7,3.8,4.7,4.1c6.8,0.8,6.5-2.5,5.8-7.9
		c-0.7-4.6,2.1-8.3,2.1-12.7c-0.1-3.2-3.8-3.2-2.3-5.8c1.1-1.9-2.1-5.6-3-7.1c-2.4-3.8-1.9-8.4-3.2-12.5c0.6-0.1,1.2,0,1.7,0.2
		c-0.6-2.1-2.7-3.4-3.8-5.2c-2-3.5-2.4-6.9-3.2-10.8c-0.6-3.3-1.4-6.6-1.5-9.9c-0.1-2.1,0.3-4.1,1.1-6.1c-1.8-0.7-2.1-1.8-1-3.2
		c2.2-3.1,3.6-4.8,6.2-7.1c2.6-2.3-0.8-3.3-0.2-5.9c0.5-2.1,2.7,0,2.5,1.4c1.9-1.5-0.6-2.5,2.3-2.6c1.3,0,5.4-0.2,4.4-2.6
		c5,2.5,10.3-10.3,12.4-12.3c4-3.8,7.3-2.5,11.4-4.4c3.2-1.6,5-8.3,5-11.1c1.8,0.2,2,3.4,4.1,1.5c2.2-1.9,6.3-0.1,7.6-3.2
		c-4.4-1.8-3.7-0.1-6.2-4.8c1.6-0.2,4.3,5.5,4.6,0.8c0.2-4.1-4.4-1.4-5-4.8c-0.5-2.8,5.4,1.8,6.3-0.1c0.4,0.8,0.4,1.5,0,2.3
		c3.7-1.7,9,0.2,8.2-7c-1.8,0.3-1.7,2.3-3.8,2.3c-0.7-1.2-0.6-2.4,0.1-3.5c-1-0.2-13.6,0.7-7.5-5.3c-0.1-0.1,4.7,7.9,4.1,2.1
		c1.8,2.7,1.6,0.1,4,0.6c3.3,0.7-0.6-4.5-0.6-5.3c3.5,0.9,2.3-4.8-1.7-5c-1.9,0-11.4-6.5-11.4-6.5c4.4-2.5,6.5,4,10.1,4.3
		c0.4-3.1-4.2-3.8-5-6.5c0.4,0.2,8.8,4.9,4.7,0.4c-2.4-2.7-4.8-6.3-7.5-8.7c3.2-2,6.8,4.2,8.5,5.9c2.3-6.5-12.5-6-10.4-12.4
		c0.8-2.5,6.8,4.6,10.2,4.5c0.5-2-1.4-5-3.5-5.3c-0.1-2.1-0.5-4.3-0.4-6.4c0.1-2.8,5.4-8.2,8.3-7.9c0.6,6-4.5,13.2,2.7,17.8
		c3.2,2.1-2.1,12.4-2.8,14.8c5.4-0.3,8-16.9,10-20.5c-4.2-3.3-10.8-19.4,0-18.2c-1.1,1.9-4.9,3.5-4.4,6.1c0.5,2.7,3.8,6.1,6.3,7.1
		c2.6,1.1,8.5-11.2,8.9-14c0.2-1.6,0.5-5.3-2.2-4.9c-0.8-4.1,5.9-4.4,8.8-5.3c3.1-1,14.7-0.4,15.4-4.8c-5.4-2.1-21.4,10.5-20.5-2.6
		c2.3,0.2,0.7,4.4,3.4,3.5c4.1-1.3,7.6-3.4,12.1-4.5c3.2-0.8,6.3-1.5,9.5-2.2c1.5-0.1,2.4-0.8,2.9-2.1c1-3.3,1.3-1.9,4.7-2.2
		c-3,5.6,3.8-0.3,3.9-0.4c1.5,4.4,0.4,2.5,4.1,1.7c2.3-0.5,7.9-4.3,2.7-5.8c-2.5,12.7-5.5-4.1-7.5-4c-5.1,0.3-0.3-4.1-1.1-7.6
		c-1.2-5.8,4.7-8.6,7.7-12.6c1.2-1.6,0.1-3.8,1.9-5.4c1.1-0.9,5.7-5,4.9-0.8c5.9,1.7,6-8.1,8.9-9c0,0,3.8,7.6,4.7,0.8
		c4.2,1.9,4.7-1,9.5-3.1c5.7-2.5,4.4-0.8,4.2-6.7c-0.2-5.4,2.9-1.4,5.8-0.9c5.7,0.6,4.5-4.9,7.7-4.9c0.8,1.6-1.5,4.4,2.1,3.2
		c1.9-0.7,3.7-2,5.3-3.3c4.8-3.6,6.6-4.3,7-10.3c2.6,0.3,1.9,6.8,5.3,4.2c0.1,3.3-7.8,6.8-3.8,7.6c2.4,0.5,12.8-3.6,13.2,0.6
		c-2.2,0.4-4.4,0.9-6.6,1.6c-3.5,0.3-4,1.7-1.7,4c-1.7,0.2-4.1-2.6-2.4-4.1c-3.1-0.5-12,6.1-14.3,8.5c4.2-1.4-4.8,5-5.7,7.1
		c-1.7,3.8,2.2,9.1,2.2,7c1.7,0.4,3.6,8.3,6.3,4.1c1-1.6,2.1-7.4,3.9-2.9c2.4-3.8,5.5-5.4,7.6-9.7c1.5-2.3,0.9-4.6,4.7-4.8
		c-0.7,2.9,3.3,2.3,5.3,3.5c0.4-2.2-0.6-3.3-2.3-4.5c1-0.9,3.4,1,5.2,0.6c3.1-0.7,6.1-2.1,8.9-3.7c3.2-1.9,13.9-3.1,15.7-5.8
		c-1.4-0.6-2.9-0.9-4.5-0.9c5.2-4.1-5.1-5.7-5-7.6c-4.1,2.6-5.4,3.2-10,3.4c-0.1-0.8,0.2-1.3,0.8-1.8c-3.1-2.3-5,1.1-7.8,0.1
		c-3-1.1-6-3.4-8.1-5.7c1-0.6,2.1-0.8,3.3-0.6c0.1-3-7.8-1.7-10-3.5c1.5-1.7-0.7-4.8-1.4-6.2c-1.7-3,0-3.6-0.6-6.4
		c-4-0.2-6.3-0.7-2.6-4.2c2.1-2,3.8-6.5,4.1-9.3c-4.4-2.1-8.6,8.1-10.6,2.5c-1.6-4.4-12.7-3.4-12.7-3.8c-0.3-3.9,9.4-1.8,10.1-5.7
		c5.5,1.9,7.6,7.4,12.8-0.2c1.6-2.4,5-1,6.8-3.4c1.8-2.3-3.6-3.8-4.3-5.3c1.6,0.1,3.1,0.2,4.7,0.2c-4.6-2.6-5.1-6.6-11.1-7.4
		c-6.3-0.9-12.9,1.7-18.7,3.9c-13.4,4.9-23.9,13.1-33.3,23.7c-4.2,4.8-8.3,9.6-13.7,13.2c-5.1,3.4-11,5.2-16,8.9
		c-7.2,5.3-16.1,22-26.3,20.7c4.2-4.9,6.7-8.9,11.4-13.4c7-6.7,15.3-10.5,23.5-15.5c7.3-4.5,12.3-11.6,18.2-17.6
		c8.5-8.6-8.1-4.7-10-8c-0.5-0.8,8.7-1.9,10-1.4c2.5,1,5,4.7,6.6,0.2c1.3-3.5,3.4-5.4,6.1-8c2-1.9,3.6-4.2,5.7-6
		c3.3-2.8,7.1-1.2,10.3-3.4c5.4-3.8,3.4-12,11.4-13.6c16.2-3.3,34.7-5,51.1-2.5C964.6,4.1,987.5,8,986.2-6.4z M593,21.7
		C592.3,22.3,592.6,22,593,21.7c-1.6,1.3-3.7-0.4-4.3-1.8c-2,1.6-1.1,9.5-6.1,6.7c-3.6-2.1-3.9-5.6,0.3-6.1c6.8-0.7-1.4-4-1.7-4.3
		c-1.9-2.1-0.5-4.4,1.6-5.3c2.9-1.2,1-2.7,1.3-5.1C585.5,5.8,594.8,20,593,21.7C593.5,21.3,593.9,20.9,593,21.7z M709.4,113.2
		c-2.2-2,2.8-7.6,3.9-9.1c3.3-4.7,2.9-5,1.1-9.9c-1.4-4.1-1.1-6.1-4.9-7.8c-4.2-1.9-9.7-6.9-14.7-2.9c1.1,0.5,2.2,0.8,3.3,1.1
		c-1.6,1.3-3.2,2.5-4.8,3.8c-1.7,2.3-1,4.9-1.8,7.4c-3.1-0.1-2.7-3.7-3.1-5.8c-7.2,2.1-7.6,18-7.5,23.7c0.1,4.4,3,7.7,3.1,11.9
		c0.1,5-2.7,13.5-7.1,16.5c-9.9,6.6-14.8-10.4-14.9-16.9c-0.3-12.6,9.6-23.3,9.4-36c-2.5,2.5-2.5,6.8-5.1,9.4c-4.2,4.1-4.2-2.5-3-5
		c2.4-4.9,6.7-20.7,14.4-14.7c3,2.4,9.6-2.7,12.7-3.4c2.8-0.6,5.1,0.6,7.2,2.4c0.5-1.5,2.4-1.8,3.8-1.8c4.3,0,8.4,1.7,12.6,2.7
		c4.5,1.1,9.9-1.2,14,1.3c1.4,0.8,2.6,2.9,3.9,3.5c4,1.8,2.6-4.1,1.4-5.4c-0.2-0.2-4.8-2.4-5.4-2.5c-3.9-0.8-9.5,0.8-13.9,0.2
		c-3.6-0.5-7.3-1.7-10.7-2.9c-1.9-0.7-8.1-2.7-7.6-5.7c-5.4-2.3-10.4,0.7-15.7,1.6c-4.2,0.7-13.4-1.4-15.4-5.6
		c-1.9-4-10.7,3.7-9.8-4.8c2.7-1.1,9.8-1.4,9.2-5.9c-7.4-3-20.6,9.5-27.3,11.9c-2.8,1-9.8,3.1-8.5-2c-5-0.8-9.1,4.8-14.1,2.6
		c2.6-5.2,5.8-8.2,10.7-11.3c4.3-2.6,11.2-9,16.2-9.7c6.9-0.9,2.7-13.9,12.5-9.2c0.1-4,0.3-4.3,4.1-4.4c2.8,0,7.6-1.8,2.1-3.6
		c2.4-4.1,6.1-2.2,9,0c3.9,2.9,7.6,2,11.3,4.1c3.1,1.7,3.2,6.5,5.1,9.1c2.2,3,9.7,2,13.2,3.6c-3.7,2.6,1.3,7.2,0.6,10.6
		c-1.1,5.7,4.5,2.7,6.6,6.1c-8.6,3.9-2.8,7.9,2.8,10.7c7.1,3.5,15.8,0.2,23.3,1.4c4.6,0.8,14,1.5,15.9,6.8c1.2,3.3,0.5,6.9,3.3,9.5
		c2.7,2.5,6.7,4,6.8,8.2c-1.6,0.1-2.9-0.4-4-1.5c2.5,3,0.3,5.4-3.4,5.7c-5.8,0.4-6.3-4.2-10.4-6.9c-5-3.3-5.9,21-7,24.6
		c-1,3.2-4.4,6.3-7.6,3.3c-3.6-3.5-3-9.4-5.7-13.5C716.8,104.8,714.3,117.9,709.4,113.2z M762.6,128c0.5-0.5,1.1-1.1-0.2,0.2
		c-0.3,0.3-0.3,0.3-0.2,0.1c-7.8,7.2-18.6,8.5-27.3,14.8c-4.5,3.3-9.1,4-14.6,3.1c-6.6-1-6.8-3.4-6.5-9.1c6.1-1.6,11.5-2.8,16.9-6.3
		c5.3-3.5,11-2.1,16.4-4.8c3.9-2,9.3-0.7,12.6-4.1C765.7,115.8,766.3,124.1,762.6,128z M795.2,107.9c0.1,0.3,0.1,0.5,0.2,0.7
		c0.8,4.3-4.1,4.6-7,5.1c-3.5,0.6-3.6,2.2-6.4,3.2c-3.3,1.1-7.2-0.5-10.5-1c-5.4-0.8-11.7,0.8-16.9,2c-1.8-8.2,7.5-9.1,13.3-10.1
		c10.6-1.7,20.2-6.1,30.5-8.9C797,100.9,791.9,105.5,795.2,107.9z"/>
	<path class="st1" d="M753.6,95.7c-0.1-0.2-0.3-0.3-0.5-0.5C753.3,95.4,753.5,95.6,753.6,95.7z"/>
	<path class="st1" d="M795.4,108.6c0-0.2-0.1-0.4-0.2-0.7C792.3,105.8,795.7,110.6,795.4,108.6z"/>
	<path class="st1" d="M762.4,128.2c0.1-0.1,0.1-0.1,0.2-0.2c-0.1,0.1-0.3,0.3-0.4,0.3C762.3,128.3,762.4,128.2,762.4,128.2z"/>
	<path class="st1" d="M593,21.7L593,21.7C593,21.7,593,21.6,593,21.7L593,21.7z"/>
	<path class="st1" d="M781.2,344.8c-3.2-1.1-12.9,1.7-15.4,3.6c1.9,1.4,5.1,1.2,7.5,0.4l-1.8-0.9c2.4-1.9,5.9-1.4,8.7-1.3
		c0.2,0.1,1.7,1.4,2.1,1.7c-0.1,1.7-0.6,3.8-0.3,5.8C785.9,353.8,784.6,346,781.2,344.8z"/>
	<path class="st1" d="M794.4,366.1l0.9,2.6c1.1,2,1,4.2,1.8,6.2C799.6,371.9,796.1,368.8,794.4,366.1z"/>
	<path class="st1" d="M740.6,443.9c-1.2,0.6-1.8,2.1-3.1,2.7c-0.3,1.2,0.9,2.2,1.9,2.8c2.3,1.5,5.3,2.9,7.6,1.5c1.6-1,2.2-3.1,2.6-5
		C746.5,446.5,743.4,442.4,740.6,443.9z"/>
	<path class="st1" d="M802,463c-1.2-0.8-2.6-1.1-3.9-1.4c-5.4-1.1-11-1.5-16.6-1.3c-0.5,0-1.1,0.1-1.6,0.4c-1.1,0.9-0.1,2.6,0.9,3.6
		c1.9,0.3,3.7,0.5,5.6,0.8c1.4,1.7,3.2,3.2,5.2,4.2c-1.1-1-0.3-3,1-3.7s2.9-0.5,4.4-0.2c2.3,0.4,4.5,0.7,6.8,1.1
		C804,465.2,803.2,463.8,802,463z"/>
	<path class="st1" d="M809.8,432.8c-0.5-4.1-3.9-7.7-8-8.5c-1.4-0.3-2.9-0.2-4.3-0.5c-2.3-0.5-4.4-1.8-6.1-3.4
		c-2.7-2.4-4.8-5.5-6.7-8.6c-0.7-1-1.3-2.1-2.2-2.9c-2.2-2-5.4-2.3-8.4-2.5c0.6,2.1,3.3,2.5,5.3,3.5c2,1.1,3.4,3,4.7,4.9
		c1.2,1.7,2.3,3.5,3.5,5.2c-2.7-1.4-4.2-4.2-6.5-6.2c-3.1-2.7-7.4-3.5-11.5-3.6c-0.9,0-1.8,0-2.7-0.3c-0.7-0.3-1.2-0.7-1.8-1.2
		c-2.5-2.3-4.7-5.6-8.1-5.6c-0.9,0-1.7,0.2-2.6,0c-0.8-0.2-1.6-1.2-1.1-1.9c-1.8,0.9-3.8,1.4-5.9,1.5c0.3-0.7,0.6-1.3,0.9-2
		c-1.3,0.9-2.9,1.3-4.5,1.3c-2.1,0-4.7-0.8-6.1,0.8c-0.4-0.9-0.8-1.8-1.2-2.7c-3.8,0.8-7.5,1.6-11.3,2.5c-3.2,0.7-6.4,1.4-9.6,2.4
		c-2,0.7-4,1.5-6,2.5c-1.7,0.9-3.7,2.6-3,4.4c0.6,1.5,2.9,2.5,2.2,4c-1.7,0.1-3.5,0.3-5.2,0.4c-1,0.1-2.2,1-1.5,1.6
		c0.2,0.2,0.6,0.2,0.9,0.2c1.6-0.1,3.1-0.4,4.6-0.8c0.1,0.5-0.2,1.1-0.7,1.3c3.2,0.3,6.5-1.4,8-4.2c0.2-0.4,0.4-0.9,0.8-1.2
		c1-1,2.6-0.6,4-0.6s3.1-1.2,2.4-2.4c0.8,0.7,2,0.1,2.6-0.7c0.6-0.8,1-1.8,1.9-2.4c0.5-0.3,1.1-0.4,1.7-0.5
		c4.2-0.6,8.6-0.3,12.7,0.7c0,0.7,0,1.4,0,2.1c-1.6,0.2-3.3,0.3-5,0.2c-0.8,0-1.8-0.1-2.3,0.6c-0.5,0.6-0.2,1.6,0.4,2.1
		c0.6,0.5,1.4,0.7,2.1,0.9c2.3,0.6,4.6,1.2,6.8,1.7c1.5,0.4,3.9,0.2,3.8-1.4c0.2,1.8,2.7,2.3,4.5,1.9c1.8-0.3,4-0.9,5.2,0.5
		c0.3,0.3,0.5,0.7,0.8,1c0.5,0.5,1.2,0.9,1.8,1.1c1.6,0.7,3.3,1.2,5,1.6c3,0.7,6.2,1,9.3,1.3c1.8,0.2,3.9,0.5,4.7,2.2
		c0.8,1.8-0.5,4.4,0.9,5.8c1,1.1,3.3,1.2,3.3,2.7c3.1-0.1,6.1-0.1,9.2-0.2c0.3,0,0.6,0,0.9,0.1c1,0.6,0,2.1-0.9,2.7
		c1.1,0.2,2.1,0.9,2.5,2c-3.4,1.4-7.1,3.1-8.6,6.5c7-0.6,13.9-1.3,20.9-1.9c1.4-0.1,3.1-0.6,3.2-2c0.1-1.3-1.4-2.1-1.9-3.2
		C807.1,434.5,808.3,432.7,809.8,432.8z"/>
	<path class="st1" d="M786.1,378c-0.3-0.5-0.9-0.7-1.5-0.8c-0.2-0.5-0.4-1.1-0.4-1.7c-0.8-0.5-2-1-2.4-0.1c-0.2,0.4-0.1,0.8,0,1.2
		c0.5,1.8,0.9,3.6,1.4,5.4c-0.7,0.4-1.1-0.7-1.6-1.3c-0.6-0.9-2-1-2.8-0.3s-0.8,2.1,0,2.9c0.4,0.4,0.9,0.6,1.3,0.9
		c0.3,0.3,0.4,0.6,0.6,0.9c0.7,1.1,2.3,1.6,3.5,1.1c0.2,0.8,0.5,1.6,0.7,2.4c-0.4-0.1-0.8-0.2-1.3-0.3c-0.1,0-0.3-0.1-0.4,0
		c-0.5,0.2-0.1,1,0.4,1.1c0.5,0.2,1.1,0.2,1.4,0.6c-0.3,1.1,0.1,2.4,0.9,3.2c0.8,0.8,2.1,1.1,3.2,0.8c0.4-1.9,0-4-1.1-5.6
		c-1-1.5-2.5-2.9-2.5-4.7c0.8-0.3,0.9-1.3,0.7-2.1c-0.2-0.8-0.7-1.5-0.8-2.3C786.1,379.3,786.4,378.5,786.1,378z"/>
</g>
<g id="state-lines">
	<polygon class="st2" points="662.7,74.4 662.7,81.8 665.5,81.8 665.5,81.1 663.4,81.1 663.4,74 660.5,72.4 660.5,70.5 639.1,64.1 
		636.2,61.2 635.7,61.7 638.7,64.7 659.8,71.1 659.8,72.8 	"/>
	<path class="st2" d="M758.6,169.3h-12.1v-13.5h0.7V155h-0.7v-22h-0.7v22h-0.4l0.3,4.8l-2.6,10.3l-7.7,2.8l-1.9,6.7l-3.6-2l-1.8,7
		l-4.8,2.4l-1.9-4.5l-11.1,2.2l-4.5-3l-3.2-3.2h-5v-39.1H711v-0.7h-13.5l0,0h-0.7l0,0h-20.6v0.7h20.6v44.1h-6.1l0.9,3.1l-7.6,7
		l-3.5-2.3l-3.2,4.5l-2.1-2l-3.4,3.3l-6.2-3.5v2.5l-3.5-1.4l-1.1,2l0.6-6.2l6.1-7l-1.4-6.8l1.4-37.5H667l-1.4,37.5v0.1l1.3,6.5
		l-6,6.9l-1.1,10.9l-4.3,1.3v4.6l-5.5-2.1l-1.7,3.8l0.6,0.3l1.4-3.3l5.8,2.2v-5.1l4.3-1.2l0.3-3.2l1.6-2.9l3.8,1.5v-2.3l5.5,3.1
		l3.3-3.2l2.2,2.1l3.3-4.6l3.4,2.2l8.4-7.6l-0.8-2.6h5.9v-5h4.8l3,3.1l4.9,3.2l11-2.1l2,4.8l0.8-0.4l0.8,7.5l5.3,5.8l-12.6,11.8
		l0.5,0.5l12.6-11.8l3.8,4.2l17.6-5l6.2-15.2l3.9,3.1l2.6-5.7h2.8l3.7-3.7l1.5-5l5.9,3.3l1.4-1.8l9,7.5l0.4-0.6l-9.5-8l-0.1,0.1
		l-1-4.5l-4.3-0.1l-3.1,1.2L767,170l-7.6,5.3V170H802v-0.7h-42.6h-0.5l0,0H758.6z M767.1,170.8l4.1,1.2l3.2-1.3l3.6,0.1l1,4.4
		l0.2-0.1l-0.9,1.3l-6.1-3.4l-1.7,5.7l-3.4,3.4H764l-2.5,5.3l-4-3.1l-6.3,15.7l-16.8,4.8l-9-10l-0.8-7.5l4.3-2.1l1.6-6.5l3.6,1.9
		l2.1-7.2l7.7-2.8l2-8.2v7.5h12.8v6.8L767.1,170.8z"/>
	<path class="st2" d="M660.2,213.3l1.1,2.1h-15.9l3.1-1.8v-4.7l-3.8-4.1l-0.9-6.8l-9-7.7l2.8-9l-6.3-0.9l-0.6-5.4l-6.8-6.8
		l-1.1-10.2l-0.1-0.1l6-9.5l-0.7-5.7l7.5-2.8l0.9-4.1v-4.5l-4.3-4.8h28.4v-0.7h-29.1l-4.1-4.6l-5-18.8v-0.1l-14.6-12.6l1.5-12
		l-2.7-3.8l6.3-6.3l0.8-5.3l-0.7-0.1l-0.8,5.1l-6.5,6.5l2.9,4.1L607,90.2l14.7,12.7l4.9,18.7v0.1l8.9,10.1v4.1l-0.8,3.7l-7.7,2.8
		l0.7,6l-5.8,9.2l-2.9-2.5h-45l-8.7-28.9V126l-1.2-0.9l-0.6-2.9l2.5-4.8l-2.3-6.4h60v-0.7h-59V81l-4.1-5.5l1.5-3.7h0.4v-0.7h-0.1
		l1.7-4.1l0.1-0.1l-8.1-47.6h23.8l0.7-7.2l2.1,2.7l5.3,8l7,1.8l3.6,3.6l7.7-3.3l3.6,1.1l-2.8,1.6l4.3,5l5-3.1l5.2,6.3l6.3-5.2
		l5.2,4.3l10.6,0.8l14.8-5.1l39.4,21.5l4.5,9.3l3.3-1.3l1.3,5.8l5,1.8v5.6l12.6,7.5l5.5,27.5l-5.8,16.8L717,129v3.2
		c0.2-0.1,0.4-0.1,0.7-0.1v-2.6l7.2-3.9l5.9-17.2v-0.1l-5.5-27.8v-0.1L712.9,73v-5.8l-5.2-1.8l-1.4-6.3l-3.4,1.4l-4.3-9L658.4,30
		l-0.1-0.1l-15,5.2l-10.2-0.8l-5.5-4.5l-6.1,5.1l-5.1-6.2l-5,3.1l-3.3-3.9l3.5-2l-5.4-1.7l-7.5,3.2l-3.3-3.4l-6.9-1.8l-5.1-7.9
		l-3.3-4.1l-0.8,8.4h-23.2l-0.1-0.8l-0.7,0.1l0.1,0.6h-78v-0.7h-0.7v0.7H340v-0.7h-0.7v0.7h-11.4v-0.7h-0.7v0.7h-64v0.7h64v44.4
		l2.6,5.7l0.4,0.4h-22.8l-18.7,5.8l-14.6-1.3l-6,1.8l-3.4-1.6l-1.6-5.3c-0.4-0.8-1.8-3.5-2.4-3.8c-0.6-0.4-4.6,0-7,0.3l0.1,0.7
		c2.9-0.4,6.1-0.6,6.5-0.4c0.3,0.2,1.4,2.1,2.1,3.6l1.7,5.5l3.9,1.9l6.1-1.8l14.6,1.3l18.7-5.9h23.5l0,0l4.7,5.2l-9.2,19.5l4.2,4
		l-2,34.3l0.7,0.1l2-34.6l-4.1-3.8l9.1-19.3l-5.9-6.5l-2.5-5.4V19.6h11.4v17.9l4.3,3.7v4.9l4.9,2l6,10.2l5.4,1.1l-3,17.6l3.5,2.9
		l3.8-5l5.7,13.6l3.8,1.6l3.3,7.5l6.3-3.3H397v39.8H249v0.7h44.8V179l59.5,55.6l0.2-0.3v2.9l8.1,9.7l-3.8,5v5.7l-4.1,6.2l0.4,5
		l-25.4,3.1l0.1,0.7l27.8-3.4l-2.6,3.9l43.7,17.9h32.5v-9.2h19l17.6,14.4l5.8,11.9l12.2,8.4l6-2.1l2.1-7.7l8.3,0.5l13,8.6
		c3.4,6.3,9.7,18.3,10,18.7c0.1,0.1,0.1,0.3,4.8,3.8v8.5l9.2,8.4l16.4,4.9l0.2-0.7l-16.3-4.9l-8.9-8V338l-0.1-0.1
		c-1.7-1.2-4.4-3.3-4.7-3.6c-0.5-1.1-7.1-13.4-10-18.8l-0.1-0.1l-13.4-9l-9-0.5l-2.2,8l-5.4,1.8l-11.7-8.1l-5.7-11.8L449.4,281h-2.3
		v-0.7h41.2V209h97.4v9.3l2.1,11.1v27.2l-9-4l-12.8,2.8l-7.4-3.8l-2.9,2V252l-8.2-0.4l-1.7-2.3l-4.7,1.1l-6.1-1.1l-3.4-5.6l-5.2,1.9
		l-3.3-3.3v-25.5H489v0.7h33.4v25.1l3.8,3.8l5.1-1.8l3.7,5.4l6.6,1.1l4.4-1.1l1.7,2.3l7.8,0.4v2.3l3.7-2.5l7.2,3.8l12.8-2.8l9.7,4.3
		l0.3-0.6l3.3,0.9v20.8l6.6,13.1l-5.1,18.1l0.7,0.2L600,292l-6.6-13.1v-13.1h31.8l2.3,5.2l-2.8,0.6l4.3,3.3l-7.5,7.7l-2,10.9H643
		l-2.1,4.3l1.9,4.2l0.6-0.3l-1.8-3.8l2.4-5h-23.7l1.8-10l7.6-8.1L626,272l2.1-0.4l-2.6-5.9l1.4-6.3h-1.5l-1.4-3.8l1.7-0.2v-4.8
		l6.4-6V241l3.3-0.9l-0.1-0.7l-3.9,1v3.9l-6.4,6v4.7l-2,0.2l1.8,5h1.1l-1.1,5H593v-7.7l-4.3-1.1v-27l-2.1-11.1v-2.1h50.2l1.3,3.6
		L635,224h7.3l0.6,1.1l-6.3,7.5l-1.4,5.7h23.9l-2.1,58.6h0.7l2.1-58.6h29.8l4.3,29.6l3.6,7.2l-3.8,6.8l3.2,11.2h-31l1.3,6.8l0.7-0.1
		l-1.1-6h30.1V293l0.8,2.7l29.7,2.5l1.4,3.9l3.6-5.7h1.5v-0.7H732l-3.1,4.8l-1.1-3l-29.6-2.5l-3.8-13.3l3.9-6.8l-3.6-7.4l-4.3-29.4
		h26.2l-1.7,3.1l6.2,4.8l3.8,7l10.7,10.7l5.4,13.7l0.6-0.3l-5.5-13.8l-10.8-10.8l-3.8-7l-5.8-4.5l1.6-3h0.9l8.1-3.7l15,1.1l3.8,4.1
		h10.7l12.9,12.7l0.5-0.5l-13.1-12.9h-10.7l-3.7-4.1l-15.4-1.1h-0.1l-8,3.8h-0.4l0.1-0.2l-0.6-0.4l-0.3,0.5h-12.9v-3.9l4.6-3.1
		l10.9-4.2l3.5-4.4l3,1.4l8-4.1v-5.2h63.3V213H660.2V213.3z M477.2,19.3h78.2l8,47.5l-1.8,4.3h-84.4L477.2,19.3L477.2,19.3z
		 M477.2,71.9h84.1l-1.6,3.8l4.1,5.5v29h-1.2l2.6,7.1l-2.5,4.8l0.5,2.3l-6-4.5l-0.1-0.1l-9.1,1.7l-6.2-2.6h-64.7v-47
		C477.1,71.9,477.2,71.9,477.2,71.9z M383.1,93.2l-5.8,3.1l-3.1-7l-3.7-1.6l-6-14.5l-4.1,5.3l-2.6-2.2l3-17.8l-5.8-1.1l-6-10.1
		l-4.7-1.9v-4.7L340,37V19.3h136.5v66.8h-79.6v7.1C396.9,93.2,383.1,93.2,383.1,93.2z M353.5,233.5l-59-55.2v-43.9H362v88.8h-8.5
		V233.5z M418.9,290.1H398l-42.9-17.6l3-4.5l-3.3,0.4l-0.4-4.8l4.1-6.2v-5.7l4-5.2l-8.2-10v-12.4h8.5v-15h56.1L418.9,290.1
		L418.9,290.1z M418.9,208.3h-56.1v-73.9h34.1v14.9h22C418.9,149.3,418.9,208.3,418.9,208.3z M397.6,148.6V86.8h78.9v61.8H397.6z
		 M487.8,279.4h-41.2v1.4h-17v9.2h-10v-81h68.2V279.4L487.8,279.4z M499.2,150.1v58.3h-79.6v-59h57.6v-29.9h64.6l6.3,2.7l9-1.7
		l7.7,6l11.4,37.8h-76.3v-14.9h-22.7v0.7H499.2z M499.9,208.3V165h77.3l-0.2-0.7l5,1.6l1.3,2.3l-2.8,2.7l5.5,7.4v30.1L499.9,208.3
		L499.9,208.3z M641.9,223.1L641.9,223.1L641.9,223.1l-0.1,0.2h-5.4l2.5-3.5l-1.6-4.3h-50.7V178l-5.3-7.1l2.8-2.6l-1.7-3.1l-5.3-1.6
		l-0.2,0.6l-2.6-8.5H619l3.2,2.8l1.1,10.2l6.8,6.8l0.6,5.7l6,0.8l-2.6,8.6l9,7.8l0.9,6.8l3.8,4.1v4l-3.8,2.3L641.9,223.1z
		 M733,218.8l-7.2,3.8l-3.1-1.5l-3.7,4.7l-10.7,4.1l-5,3.3v4.3h-43.4v-0.4h-0.7v0.4h-23l1.1-4.6l6.5-7.7l-1.1-2.1l1.9-7l0.4-0.2v0.4
		h17.6l-1.1-2.1H733V218.8z"/>
	<path class="st2" d="M809.1,148.8l4.6-4.9l0.1,0.1c0.1-0.2,0.1-0.5,0.2-0.7l-1.7-1.1l-1.6-5.5l-4.3-3H755v-5.3
		c-0.2,0.1-0.4,0.3-0.7,0.4v5.6H806l3.9,2.7l1.6,5.5l1.4,0.9l-4.7,5v7.4l4.8,5.5l-6.9,3.8l0.4,0.6l7.5-4.3l-5-5.9L809.1,148.8
		L809.1,148.8z"/>
	<path class="st2" d="M896.4,80.7l1.6-4.3l-5-3.2V51.5l-4.3-4.9l-6.5,2.1l-5.3-4.3l-13,19.6v6.8l-7.1,6.6v2.9l-3.3-0.9l-0.1,0.2
		c0,0-1.4,2.3-2.9,4.4c-1.4,2-2.8,2-2.9,2H815l-7,3.5l-10.3,8.4l-4.3,8.7c0,0.3,0,0.6,0,0.9h0.4l4.5-9l10.2-8.2l6.9-3.3h32.2
		c0.1,0,1,0,2.1-0.9v7l-5.9,3.9l-4.6,26.2h-8.8l0.1-0.5l1.1-14.1l-2.2-1.1l-2.8-20.9h-0.7l2.8,21.4l2.2,1.1l-1.1,13.6l-2.8,10.5V145
		l-2.8,1.6v2.3h0.7V147l2.8-1.6v-10.7h24.7l4.4,3l0.4-0.6l-4.5-3.1h-25v-0.6l2.5-9.3H854v-0.7h-14.1l4.5-25.7l6-3.9v-8h-0.1
		c0.2-0.2,0.5-0.5,0.7-0.9c1.2-1.8,2.4-3.6,2.8-4.3l0.9,0.2v30.6l2.5,4.3l0.6-0.4l-2.4-4.1V81l2.1,0.6v-3.5l7.1-6.6v-7l12.5-18.8
		l5,4.1l6.5-2.1l3.8,4.3v21.7l4.9,3.1l-1.6,4.3l5.3,4.8l0.5-0.5L896.4,80.7z"/>
</g>
<g id="marker_3_">
	<path id="pin_4_" class="st3" d="M680.6,175c0.7-1.1,1.1-2.5,1.1-3.9c0-4.1-3.3-7.4-7.4-7.4c-4.1,0-7.4,3.3-7.4,7.4
		c0,1.6,0.5,3,1.3,4.1l6.1,7.4L680.6,175z"/>
</g>
<g id="water">
	<path class="st0" d="M499.2,439.5c-0.8-0.5-1.3-1.3-2-1.9c-0.7-0.7-1.6-1.2-2.5-0.9c-0.2,0.5-0.5,1.1-0.7,1.6
		c-1.2,0.3-2.4,0.7-3.5,1.2c-0.8,0.4-1.7,1.1-1.4,1.9c0.2,0.6,1,0.8,1.7,0.9c3.4,0.5,6.9,1,10.3,1.5c1,0.1,2,0.3,2.9-0.1
		s1.6-1.4,1.3-2.3C504.1,439.5,501.1,440.6,499.2,439.5z"/>
	<path class="st0" d="M524.1,438.8c-0.7-0.2-1.4-0.1-2-0.3c-0.6-0.2-1.1-1.1-0.7-1.6c-0.1-0.6-1.2-0.5-1.6,0
		c-0.4,0.5-0.6,1.2-1.2,1.5c-0.4,0.2-0.9,0.2-1.3,0.4c-0.4,0.2-0.7,0.8-0.3,1.1c2.7,0.2,5.3,0.4,8,0.5
		C525.3,439.7,524.7,439,524.1,438.8z"/>
</g>
</svg>
