<svg width="24" height="24" viewBox="0 0 24 24" fill="none" xmlns="http://www.w3.org/2000/svg">
<path fill-rule="evenodd" clip-rule="evenodd" d="M11.9998 24C5.37289 24 0 18.6271 0 11.9998C0 5.37339 5.37289 0 11.9998 0C18.6271 0 23.9995 5.37339 23.9995 11.9998C23.9995 18.6271 18.6266 24 11.9998 24ZM11.9994 22.5001C14.3134 22.5001 16.4339 21.7281 18.1693 20.4596C17.8638 19.9416 17.3118 19.1176 16.4689 18.2746C15.8454 17.6512 15.0874 17.0262 14.4144 16.5057C13.6884 16.9657 12.8754 17.2512 11.9994 17.2512C11.1235 17.2512 10.311 16.9657 9.585 16.5057C8.91201 17.0262 8.15403 17.6512 7.53054 18.2746C6.68756 19.1181 6.13557 19.9416 5.83008 20.4596C7.56504 21.7281 9.685 22.5001 11.9994 22.5001ZM15.7498 10.8768C15.7498 8.18337 14.0709 6.00092 11.9999 6.00092C9.92897 6.00092 8.25 8.18337 8.25 10.8768C8.25 13.5688 9.92897 15.7507 11.9999 15.7507C14.0709 15.7507 15.7498 13.5688 15.7498 10.8768ZM11.9998 1.5C6.2009 1.5 1.5 6.2014 1.5 11.9998C1.5 14.9657 2.73947 17.6317 4.71643 19.5411C4.99143 19.0486 5.53842 18.1887 6.4304 17.2962C7.04139 16.6852 7.78287 16.0692 8.45036 15.5472C7.41088 14.3822 6.74989 12.7288 6.74989 10.8768C6.74989 7.35488 9.10034 4.50094 11.9998 4.50094C14.8992 4.50094 17.2497 7.35488 17.2497 10.8768C17.2497 12.7288 16.5882 14.3822 15.5492 15.5472C16.2167 16.0692 16.9582 16.6852 17.5692 17.2962C18.4616 18.1887 19.0081 19.0486 19.2836 19.5411C21.2601 17.6317 22.5001 14.9652 22.5001 11.9998C22.4996 6.2014 17.7987 1.5 11.9998 1.5Z" fill="#404041"/>
</svg>
