<?xml version="1.0" encoding="utf-8"?>
<!-- Generator: Adobe Illustrator 22.0.1, SVG Export Plug-In . SVG Version: 6.00 Build 0)  -->
<svg version="1.1" id="map" xmlns="http://www.w3.org/2000/svg" xmlns:xlink="http://www.w3.org/1999/xlink" x="0px" y="0px"
	 viewBox="0 0 930 400" style="enable-background:new 0 0 930 400;" xml:space="preserve">
<style type="text/css">
	.st0{fill:#A2DDF5;}
	.st1{fill:#F6F0EF;}
	.st2{opacity:0.5;fill:#231F20;enable-background:new    ;}
	.st3{fill:#490B4D;}
</style>
<rect x="-2.6" y="-2" class="st0" width="936.2" height="403.7"/>
<g id="land_1_">
	<path class="st1" d="M133.7-2c3.2,2,6.4,3.5,6.9,0H133.7z"/>
	<path class="st1" d="M561.5,390.9c-1.2-2.2-2.5-4.4-3.7-6.6c-1,1.5-3,2-4.8,1.8c-1.8-0.2-3.5-0.9-5.3-1.2c-4.5-0.8-9,1-13.5,1.8
		c-2.9,0.5-5.9,0.6-8.8,1.4c-2.9,0.8-5.7,2.5-6.9,5.2s-0.6,5.7-0.5,8.6h35.1C555.3,397.9,560.4,395.5,561.5,390.9z"/>
	<path class="st1" d="M131.6,14.3c0.7,4.1,3.3,5,4.6,8.2c0.8,2.4-2.5,3.5,1.5,6.3c-4-3-2.7,3.8-1,5.1c1.8,1.4,5.5,0.6,6.5,3.1
		c-7.2,1.1-7.4-1.4-8.2,6.3c-0.9,6.8-1.2,14.9-0.9,21.9c0.2,2.4,1.7,6.4-0.1,8.4c-1.2,1.4,1.1,3.1,0,5.4c-4,8.2-8,13.3-2.2,22.5
		c3.1,5,2.9,11.9,1.7,17.6c-0.6,2.7-4.1,3.7-3.2,7.1c0.8,3,3.9,4.9,5.5,7.4c4.1,5.9,2.2,14.3,5.5,20.8c1.2,2.4,9.2,7.8,9.2,9.9
		c-0.7-5.7,9-7,12.6-4.7c4.3,2.8-7.2,3.3-8.5,3.8c0.9,2.4,2.6,4.6,3,7.2c-6.7-8.8-10.8,1.7-4.1,4.8c1.5,0.6,8-0.4,5.8,3.3
		c-3.3,5.5,1.4,5.6,4.4,9.6c2.9,3.8,6,8.4,8.1,12.7c2,4.3,1.6,9.6,7.5,10.2c6.1,0.8,6.1-1.2,10.8,3.5c2.4,2.4,8.1,0.6,7.6,5.5
		c7.3-4.3,17.9,20.3,19.8,24.7c2.2,5.1,5,10,7.1,15.1c1.9,4.3,3.2,12.2,7.1,15c5,3.5,6.9,6,10,11.2c1.4,2.4,3.6,3.1,5.4,5
		c2.4,2.6-0.3,2.5-0.9,4.4c-0.7,2.1,5,6.4,0.6,5.8c-1.8-0.3-8.9-4.7-10-1.6c-0.1,0.4,7.1,7,7.9,7.2c2.9,0.8,3.5,3.4,6,4.5
		c2.5,1,6-1.2,8-2.3c-0.2,5.5,4.1,7.4,7.9,10.4c6,4.7,0.5,10.9,3.3,16.3c2.2,4.1,9,7.6,12.4,10.7c2.3,2.1,3.5,5.1,6.3,6.8
		c3.5,2.2,3,3.7,5.3,6.8c6.7-4.2,4.1-13.1-2.6-15.9c0.4,3.1-1.6,3.3-3.5,1.5c-3-3-1.2-7.1-3-10.6c-3.9-7.3-5.2-18.6-11.7-23.8
		c0.6,1.3,0.7,2.5,0.2,3.8c-2.2-0.4-10.4-16.1-11.2-18.2c-1.2-3.4-1.3-6.5-4.5-8.7c-1.1,0-3.7-3.3-4-4c-2.7-6.6-10.8-8.1-11.6-15.3
		c-0.4-4.1-1.1-7.7-3.3-11.1c-0.9-1.4-3.4-11.4-3.3-13c2,0.3,7.7,8,9.1,3.6c1-3,8.3,4.6,10.1,4.8c1.7,0.2,5.3,6.8,5.4,8.7
		c0.1,4.6,3.7,11.5,6.8,14.9c3.2,3.5,3.2,9.8,6.3,13.8c2.1,2.8,5,4.7,7.7,7c2-2,3.6-1.4,5.7,0.6c1,1,0.5,3.6,1.3,4.9
		c1.4,2.3,4.2,3.3,5.6,5.7c1.8,3,2.3,1.4,5.7,2.5c4,1.2,3.3,4.8,5.3,7.5c-2.6-3.6-5.3,3.6-4.2,6.3c0.5,1.1,4.4,2,5.9,3.4
		c1.7,1.7,4.2,1.8,6.2,3.1c2.5,1.7,1,3.1,2.2,5.2c2,3.9,6.8,23.4,9.8,26.7c2.2,2.4,6.5,9.9,10.9,16c-0.5,1.7-0.3,3.7,0.6,5.1
		c0.6,1,1.6,1.7,2.3,2.5c2.8,3.1,3.1,8.1,0.9,11.6c-0.4,0.6-0.8,1.1-0.9,1.8c-0.1,0.4,0,0.9,0.1,1.3h107.7
		c-2.2-4.8-4.2-9.8-5.9-14.8c0.1,0,0.2,0,0.3,0c0.5-5.1-9.4-41.5-7.9-46.5c1.6-5.1,3.6-10.2,4.6-15.4c1.1-5.6-3.9-7.4-3.6-11.9
		c0.2-3.6-3.3-5.5-2.7-8.3c5.1,3.9,8.3-1,3.2-4.1c-2.8-1.7,1.8-2.3,2.6-2.3c2.7,0.2,1.2-6.5,5.3-5.5c3,0.7,1.7-3.2,2-4.2
		c0.7-2.1,7.1,1.1,8.7,0.3c3.2-1.6,5.2-3.6,7.6-6.3c3.8-4.1-1.2-3.9,0.6-7.9c2.1,1.5,4.7-2.6,6.2-1.6c0.4,1.1,0.3,2.2-0.3,3.4
		c2.3,0,5.7,0.3,7-2.1c0.7-1.3,1.2-3.6,3.3-2.5c-0.8,1.5-1.6,3.1-2.3,4.6c6.8,0.3,13.2,0.5,20,0.9c-1.1-9.2,8.2-0.6,10.6-1.1
		c-0.6,2.8,0.1,7.4,4.5,6.4c1.9-0.4,2.3-3.1,4.6-2.6c2.1,0.4,1.7,3,4.4,1.8c-0.4-1.9-2.5-2.9-1.4-5c0.9-0.2,16.6,9,12.4,3.3
		c-1-1.2-8.6-1.7-6.5-4.6c0.6-0.7,3.1-6.5,0.2-4c-3.2,2.7-3.5-0.6-6.9-0.8c-3.1-0.2-0.5-5.1,2.4-3.3c4.7,3,5.7-0.6,10.3-1.3
		c2.5-0.4,5.1,1.1,7.5-0.4c1.6-0.9,2.2-3,3.8-3.9c3.9-2.4,4.5,6.3,7.5,4.4c3.5-2.1,3-1.7,6.5-1c5.6,1.1,8.7-1.4,14.3,2.4
		c0.6,0.4,4,6.8,3.4,6.7c9.4,0.5,15.2-10.8,22.3,0c2.3,3.4,5.9,6.3,7.8,9.9c3,5.9-1.9,10.1-0.8,15.4c0.2,0,6.5-7.6,4.4-0.5
		c-0.9,2.8-3.2,11,1.4,12c-0.4-2.2,0.9-2.7,3.8-1.4c-1.6,1.7-1.9,3.7-1.1,5.9c0,0.1,2.4-5.1,3.1-3.2c0.5,1.5-0.6,5.5-0.4,7.3
		c0.4,3,4.7,5.5,6.3,8.2c1.3,2.3,1.7,3.8,4.7,4.1c6.8,0.8,6.5-2.5,5.8-7.9c-0.7-4.6,2.1-8.3,2.1-12.7c-0.1-3.2-3.8-3.2-2.3-5.8
		c1.1-1.9-2.1-5.6-3-7.1c-2.4-3.8-1.9-8.4-3.2-12.5c0.6-0.1,1.2,0,1.7,0.2c-0.6-2.1-2.7-3.4-3.8-5.2c-2-3.5-2.4-6.9-3.2-10.8
		c-0.6-3.3-1.4-6.6-1.5-9.9c-0.1-2.1,0.3-4.1,1.1-6.1c-1.8-0.7-2.1-1.8-1-3.2c2.2-3.1,3.6-4.8,6.2-7.1c2.6-2.3-0.8-3.3-0.2-5.9
		c0.5-2.1,2.7,0,2.5,1.4c1.9-1.5-0.6-2.5,2.3-2.6c1.3,0,5.4-0.2,4.4-2.6c5,2.5,10.3-10.3,12.4-12.3c4-3.8,7.3-2.5,11.4-4.4
		c3.2-1.6,5-8.3,5-11.1c1.8,0.2,2,3.4,4.1,1.5c2.2-1.9,6.3-0.1,7.6-3.2c-4.4-1.8-3.7-0.1-6.2-4.8c1.6-0.2,4.3,5.5,4.6,0.8
		c0.2-4.1-4.4-1.4-5-4.8c-0.5-2.8,5.4,1.8,6.3-0.1c0.4,0.8,0.4,1.5,0,2.3c3.7-1.7,9,0.2,8.2-7c-1.8,0.3-1.7,2.3-3.8,2.3
		c-0.7-1.2-0.6-2.4,0.1-3.5c-1-0.2-13.6,0.7-7.5-5.3c-0.1-0.1,4.7,7.9,4.1,2.1c1.8,2.7,1.6,0.1,4,0.6c3.3,0.7-0.6-4.5-0.6-5.3
		c3.5,0.9,2.3-4.8-1.7-5c-1.9,0-11.4-6.5-11.4-6.5c4.4-2.5,6.5,4,10.1,4.3c0.4-3.1-4.2-3.8-5-6.5c0.4,0.2,8.8,4.9,4.7,0.4
		c-2.4-2.7-4.8-6.3-7.5-8.7c3.2-2,6.8,4.2,8.5,5.9c2.3-6.5-12.5-6-10.4-12.4c0.8-2.5,6.8,4.6,10.2,4.5c0.5-2-1.4-5-3.5-5.3
		c-0.1-2.1-0.5-4.3-0.4-6.4c0.1-2.8,5.4-8.2,8.3-7.9c0.6,6-4.5,13.2,2.7,17.8c3.2,2.1-2.1,12.4-2.8,14.8c5.4-0.3,8-16.9,10-20.5
		c-4.2-3.3-10.8-19.4,0-18.2c-1.1,1.9-4.9,3.5-4.4,6.1c0.5,2.7,3.8,6.1,6.3,7.1c2.6,1.1,8.5-11.2,8.9-14c0.2-1.6,0.5-5.3-2.2-4.9
		c-0.8-4.1,5.9-4.4,8.8-5.3c3.1-1,14.7-0.4,15.4-4.8c-5.4-2.1-21.4,10.5-20.5-2.6c2.3,0.2,0.7,4.4,3.4,3.5c4.1-1.3,7.6-3.4,12.1-4.5
		c3.2-0.8,6.3-1.5,9.5-2.2c1.5-0.1,2.4-0.8,2.9-2.1c1-3.3,1.3-1.9,4.7-2.2c-3,5.6,3.8-0.3,3.9-0.4c1.5,4.4,0.4,2.5,4.1,1.7
		c2.3-0.5,7.9-4.3,2.7-5.8c-2.5,12.7-5.5-4.1-7.5-4c-5.1,0.3-0.3-4.1-1.1-7.6c-1.2-5.8,4.7-8.6,7.7-12.6c1.2-1.6,0.1-3.8,1.9-5.4
		c1.1-0.9,5.7-5,4.9-0.8c5.9,1.7,6-8.1,8.9-9c0,0,3.8,7.6,4.7,0.8c4.2,1.9,4.7-1,9.5-3.1c5.7-2.5,4.4-0.8,4.2-6.7
		c-0.2-5.4,2.9-1.4,5.8-0.9c5.7,0.6,4.5-4.9,7.7-4.9c0.8,1.6-1.5,4.4,2.1,3.2c1.9-0.7,3.7-2,5.3-3.3c4.8-3.6,6.6-4.3,7-10.3
		c2.6,0.3,1.9,6.8,5.3,4.2c0.1,3.3-7.8,6.8-3.8,7.6c2.4,0.5,12.8-3.6,13.2,0.6c-2.2,0.4-4.4,0.9-6.6,1.6c-3.5,0.3-4,1.7-1.7,4
		c-1.7,0.2-4.1-2.6-2.4-4.1c-3.1-0.5-12,6.1-14.3,8.5c4.2-1.4-4.8,5-5.7,7.1c-1.7,3.8,2.2,9.1,2.2,7c1.7,0.4,3.6,8.3,6.3,4.1
		c1-1.6,2.1-7.4,3.9-2.9c2.4-3.8,5.5-5.4,7.6-9.7c1.5-2.3,0.9-4.6,4.7-4.8c-0.7,2.9,3.3,2.3,5.3,3.5c0.4-2.2-0.6-3.3-2.3-4.5
		c1-0.9,3.4,1,5.2,0.6c3.1-0.7,6.1-2.1,8.9-3.7c3.2-1.9,13.9-3.1,15.7-5.8c-1.4-0.6-2.9-0.9-4.5-0.9c5.2-4.1-5.1-5.7-5-7.6
		c-4.1,2.6-5.4,3.2-10,3.4c-0.1-0.8,0.2-1.3,0.8-1.8c-3.1-2.3-5,1.1-7.8,0.1c-3-1.1-6-3.4-8.1-5.7c1-0.6,2.1-0.8,3.3-0.6
		c0.1-3-7.8-1.7-10-3.5c1.5-1.7-0.7-4.8-1.4-6.2c-1.7-3,0-3.6-0.6-6.4c-4-0.2-6.3-0.7-2.6-4.2c2.1-2,3.8-6.5,4.1-9.3
		c-4.4-2.1-8.6,8.1-10.6,2.5c-1.6-4.4-12.7-3.4-12.7-3.8c-0.3-3.9,9.4-1.8,10.1-5.7c5.5,1.9,7.6,7.4,12.8-0.2c1.6-2.4,5-1,6.8-3.4
		c0.1-0.1,0.1-0.2,0.2-0.3h-45.9c-6.2,4.3-11.8,9.4-17,15.3c-4.2,4.8-8.3,9.6-13.7,13.2c-5.1,3.4-11,5.2-16,8.9
		c-7.2,5.3-16.1,22-26.3,20.7c4.2-4.9,6.7-8.9,11.4-13.4c7-6.7,15.3-10.5,23.5-15.5c7.3-4.5,12.3-11.6,18.2-17.6
		c8.5-8.6-8.1-4.7-10-8c-0.5-0.8,8.7-1.9,10-1.4c2.5,1,5,4.7,6.6,0.2c0.3-0.9,0.7-1.6,1.1-2.3H562c1,2,1.4,4.5,2.7,6.2
		c2.2,3,9.7,2,13.2,3.6c-3.7,2.6,1.3,7.2,0.6,10.6c-1.1,5.7,4.5,2.7,6.6,6.1c-8.6,3.9-2.8,7.9,2.8,10.7c7.1,3.5,15.8,0.2,23.3,1.4
		c4.6,0.8,14,1.5,15.9,6.8c1.2,3.3,0.5,6.9,3.3,9.5c2.7,2.5,6.7,4,6.8,8.2c-1.6,0.1-2.9-0.4-4-1.5c2.5,3,0.3,5.4-3.4,5.7
		c-5.8,0.4-6.3-4.2-10.4-6.9c-5-3.3-5.9,21-7,24.6c-1,3.2-4.4,6.3-7.6,3.3c-3.6-3.5-3-9.4-5.7-13.5s-5.2,8.9-10.1,4.3
		c-2.2-2,2.8-7.6,3.9-9.1c3.3-4.7,2.9-5,1.1-9.9c-1.4-4.1-1.1-6.1-4.9-7.8c-4.2-1.9-9.7-6.9-14.7-2.9c1.1,0.5,2.2,0.8,3.3,1.1
		c-1.6,1.3-3.2,2.5-4.8,3.8c-1.7,2.3-1,4.9-1.8,7.4c-3.1-0.1-2.7-3.7-3.1-5.8c-7.2,2.1-7.6,18-7.5,23.7c0.1,4.4,3,7.7,3.1,11.9
		c0.1,5-2.7,13.5-7.1,16.5c-9.9,6.6-14.8-10.4-14.9-16.9c-0.3-12.6,9.6-23.3,9.4-36c-2.5,2.5-2.5,6.8-5.1,9.4c-4.2,4.1-4.2-2.5-3-5
		c2.4-4.9,6.7-20.7,14.4-14.7c3,2.4,9.6-2.7,12.7-3.4c2.8-0.6,5.1,0.6,7.2,2.4c0.5-1.5,2.4-1.8,3.8-1.8c4.3,0,8.4,1.7,12.6,2.7
		c4.5,1.1,9.9-1.2,14,1.3c1.4,0.8,2.6,2.9,3.9,3.5c4,1.8,2.6-4.1,1.4-5.4c-0.2-0.2-4.8-2.4-5.4-2.5c-3.9-0.8-9.5,0.8-13.9,0.2
		c-3.6-0.5-7.3-1.7-10.7-2.9c-1.9-0.7-8.1-2.7-7.6-5.7c-5.4-2.3-10.4,0.7-15.7,1.6c-4.2,0.7-13.4-1.4-15.4-5.6
		c-1.9-4-10.7,3.7-9.8-4.8c2.7-1.1,9.8-1.4,9.2-5.9c-7.4-3-20.6,9.5-27.3,11.9c-2.8,1-9.8,3.1-8.5-2c-5-0.8-9.1,4.8-14.1,2.6
		c2.6-5.2,5.8-8.2,10.7-11.3c4.3-2.6,11.2-9,16.2-9.7c5.6-0.8,3.9-9.5,8.3-10.2H151.7c0.4,2,0.9,3.8,2.9,5.8
		c1.6,1.6-1.1,3.3-1.9,4.2c-1.8,1.9,0.1,4.4,0.9,6.2c1.6,3.6-2.4,9.2-7,7.1c2.4-4.3,1.5-2.6-2-3.1c0.4-2.5,0.3-5.5,2-7.5
		c1.1-1.4,3.6-2.9,3.3-5.1c-5.9,1.3-10.4-1.1-15.7-3.2c-6.2-2.5-6.9-2-4.6,3.5C130.7,8.5,131.2,11.6,131.6,14.3z M647.6,71.8
		c10.6-1.7,20.2-6.1,30.5-8.9c-1.3,1.9-6.5,6.6-3.1,9c0.1,0.3,0.1,0.5,0.2,0.7c0.8,4.3-4.1,4.6-7,5.1c-3.5,0.6-3.6,2.2-6.4,3.2
		c-3.3,1.1-7.2-0.5-10.5-1c-5.4-0.8-11.7,0.8-16.9,2C632.5,73.6,641.8,72.7,647.6,71.8z M593.6,101c6.1-1.6,11.5-2.8,16.9-6.3
		c5.3-3.5,11-2.1,16.4-4.8c3.9-2,9.3-0.7,12.6-4.1c5.9-6,6.5,2.3,2.8,6.2c0.5-0.5,1.1-1.1-0.2,0.2c-0.3,0.3-0.3,0.3-0.2,0.1
		c-7.8,7.2-18.6,8.5-27.3,14.8c-4.5,3.3-9.1,4-14.6,3.1C593.5,109.1,593.2,106.8,593.6,101z"/>
	<path class="st1" d="M533.1-2h-3c0.8,0.1,1.8,0.4,3,1C533.1-1.4,533.1-1.7,533.1-2z"/>
	<path class="st1" d="M633.4,59.7c-0.1-0.2-0.3-0.3-0.5-0.5C633.1,59.4,633.2,59.5,633.4,59.7z"/>
	<path class="st1" d="M675.1,72.5c0-0.2-0.1-0.4-0.2-0.7C672,69.7,675.5,74.6,675.1,72.5z"/>
	<path class="st1" d="M642.1,92.2c0.1-0.1,0.1-0.1,0.2-0.2c-0.1,0.1-0.3,0.3-0.4,0.3C642,92.2,642.1,92.2,642.1,92.2z"/>
	<path class="st1" d="M660.9,308.8c-3.2-1.1-12.9,1.7-15.4,3.6c1.9,1.4,5.1,1.2,7.5,0.4l-1.8-0.9c2.4-1.9,5.9-1.4,8.7-1.3
		c0.2,0.1,1.7,1.4,2.1,1.7c-0.1,1.7-0.6,3.8-0.3,5.8C665.6,317.7,664.4,309.9,660.9,308.8z"/>
	<path class="st1" d="M674.1,330l0.9,2.6c1.1,2,1,4.2,1.8,6.2C679.3,335.9,675.8,332.8,674.1,330z"/>
	<path class="st1" d="M582.7,382.1c1.6-0.1,3.1-0.4,4.6-0.8c0.1,0.5-0.2,1.1-0.7,1.3c3.2,0.3,6.5-1.4,8-4.2c0.2-0.4,0.4-0.9,0.8-1.2
		c1-1,2.6-0.6,4-0.6c1.4,0,3.1-1.2,2.4-2.4c0.8,0.7,2,0.1,2.6-0.7c0.6-0.8,1-1.8,1.9-2.4c0.5-0.3,1.1-0.4,1.7-0.5
		c4.2-0.6,8.6-0.3,12.7,0.7v2.1c-1.6,0.2-3.3,0.3-5,0.2c-0.8,0-1.8-0.1-2.3,0.6c-0.5,0.6-0.2,1.6,0.4,2.1c0.6,0.5,1.4,0.7,2.1,0.9
		c2.3,0.6,4.6,1.2,6.8,1.7c1.5,0.4,3.9,0.2,3.8-1.4c0.2,1.8,2.7,2.3,4.5,1.9c1.8-0.3,4-0.9,5.2,0.5c0.3,0.3,0.5,0.7,0.8,1
		c0.5,0.5,1.2,0.9,1.8,1.1c1.6,0.7,3.3,1.2,5,1.6c3,0.7,6.2,1,9.3,1.3c1.8,0.2,3.9,0.5,4.7,2.2c0.8,1.8-0.5,4.4,0.9,5.8
		c1,1.1,3.3,1.2,3.3,2.7c3.1-0.1,6.1-0.1,9.2-0.2c0.3,0,0.6,0,0.9,0.1c1,0.6,0,2.1-0.9,2.7c1.1,0.2,2.1,0.9,2.5,2
		c-1.1,0.4-2.2,0.9-3.2,1.5H689c-0.5-0.7-1.3-1.3-1.6-2.1c-0.6-1.4,0.6-3.2,2.1-3.1c-0.5-4.1-3.9-7.7-8-8.5
		c-1.4-0.3-2.9-0.2-4.3-0.5c-2.3-0.5-4.4-1.8-6.1-3.4c-2.7-2.4-4.8-5.5-6.7-8.6c-0.7-1-1.3-2.1-2.2-2.9c-2.2-2-5.4-2.3-8.4-2.5
		c0.6,2.1,3.3,2.5,5.3,3.5c2,1.1,3.4,3,4.7,4.9c1.2,1.7,2.3,3.5,3.5,5.2c-2.7-1.4-4.2-4.2-6.5-6.2c-3.1-2.7-7.4-3.5-11.5-3.6
		c-0.9,0-1.8,0-2.7-0.3c-0.7-0.3-1.2-0.7-1.8-1.2c-2.5-2.3-4.7-5.6-8.1-5.6c-0.9,0-1.7,0.2-2.6,0c-0.8-0.2-1.6-1.2-1.1-1.9
		c-1.8,0.9-3.8,1.4-5.9,1.5c0.3-0.7,0.6-1.3,0.9-2c-1.3,0.9-2.9,1.3-4.5,1.3c-2.1,0-4.7-0.8-6.1,0.8l-1.2-2.7
		c-3.8,0.8-7.5,1.6-11.3,2.5c-3.2,0.7-6.4,1.4-9.6,2.4c-2,0.7-4,1.5-6,2.5c-1.7,0.9-3.7,2.6-3,4.4c0.6,1.5,2.9,2.5,2.2,4
		c-1.7,0.1-3.5,0.3-5.2,0.4c-1,0.1-2.2,1-1.5,1.6C582.1,382.2,582.4,382.2,582.7,382.1z"/>
	<path class="st1" d="M665.9,342c-0.3-0.5-0.9-0.7-1.5-0.8c-0.2-0.5-0.4-1.1-0.4-1.7c-0.8-0.5-2-1-2.4-0.1c-0.2,0.4-0.1,0.8,0,1.2
		c0.5,1.8,0.9,3.6,1.4,5.4c-0.7,0.4-1.1-0.7-1.6-1.3c-0.6-0.9-2-1-2.8-0.3c-0.8,0.7-0.8,2.1,0,2.9c0.4,0.4,0.9,0.6,1.3,0.9
		c0.3,0.3,0.4,0.6,0.6,0.9c0.7,1.1,2.3,1.6,3.5,1.1c0.2,0.8,0.5,1.6,0.7,2.4c-0.4-0.1-0.8-0.2-1.3-0.3c-0.1,0-0.3-0.1-0.4,0
		c-0.5,0.2-0.1,1,0.4,1.1c0.5,0.2,1.1,0.2,1.4,0.6c-0.3,1.1,0.1,2.4,0.9,3.2c0.8,0.8,2.1,1.1,3.2,0.8c0.4-1.9,0-4-1.1-5.6
		c-1-1.5-2.5-2.9-2.5-4.7c0.8-0.3,0.9-1.3,0.7-2.1c-0.2-0.8-0.7-1.5-0.8-2.3C665.9,343.3,666.2,342.5,665.9,342z"/>
</g>
<g id="state-lines_1_">
	<polygon class="st2" points="544.4,41.3 544.4,48.8 547.3,48.8 547.3,48.1 545.1,48.1 545.1,40.9 542.3,39.3 542.3,37.5 520.8,31 
		518,28.2 517.5,28.7 520.5,31.7 541.6,38.1 541.6,39.8 	"/>
	<path class="st2" d="M640.4,136.2h-12.1v-13.5h0.7V122h-0.7v-22h-0.7v22h-0.4l0.3,4.8l-2.6,10.3l-7.7,2.8l-1.9,6.7l-3.6-2l-1.8,7
		L605,154l-1.9-4.5l-11.1,2.1l-4.5-3l-3.2-3.2h-5v-39.1h13.5v-0.7h-13.5l0,0h-0.7l0,0H558v0.7h20.6v44.1h-6.1l0.9,3.1l-7.6,7
		l-3.5-2.3l-3.2,4.5l-2.1-2l-3.5,3.3l-6.2-3.5v2.5l-3.5-1.4l-1.1,2l0.6-6.2l6.1-7l-1.4-6.8l1.4-37.5h-0.7l-1.4,37.5v0.1l1.3,6.5
		l-6,6.9l-1.1,10.9l-4.3,1.3v4.7l-5.5-2.1l-1.7,3.8l0.6,0.3l1.4-3.3l6,2.3v-5.1l4.3-1.2l0.3-3.2l1.6-2.9l3.8,1.4v-2.3l5.5,3.1
		l3.3-3.2l2.2,2.1l3.3-4.6l3.4,2.2l8.4-7.6l-0.8-2.6h5.9v-5h4.8l3,3.1l4.9,3.2l10.8-2.1l2,4.8l0.8-0.4l0.8,7.5l5.3,5.8L599,179.6
		l0.5,0.5l12.6-11.8l3.8,4.2l17.6-5l6.2-15.2l3.9,3.1l2.6-5.7h2.8l3.7-3.7l1.5-5l5.9,3.3l1.4-1.8l9,7.5l0.4-0.6l-9.5-8l-0.1,0.1
		l-1-4.5l-4.3-0.1l-3.1,1.2l-4.2-1.3l-7.6,5.3v-5.3h42.6v-0.7h-42.6h-0.5v0.1H640.4z M648.8,137.8l4.1,1.2l3.2-1.3l3.6,0.1l1,4.4
		l0.2-0.1l-0.9,1.3l-6.1-3.5l-1.7,5.7l-3.4,3.4h-3.1l-2.5,5.3l-4-3.1l-6.3,15.8l-16.8,4.8l-9-10l-0.8-7.5l4.3-2.1l1.6-6.5l3.6,1.9
		l2.1-7.2l7.7-2.8l2-8.2v7.5h12.8v6.8L648.8,137.8z"/>
	<polygon class="st2" points="509,-2 507.8,-2 503.2,1.9 500,-2 499.1,-2 503.1,2.9 	"/>
	<polygon class="st2" points="525.2,2.7 538.9,-2 536.9,-2 525,2.1 514.8,1.3 510.8,-2 509.7,-2 514.6,2 	"/>
	<polygon class="st2" points="495.7,-2 494.4,-2 493.1,-1.2 492.5,-2 491.5,-2 493,-0.3 	"/>
	<path class="st2" d="M579.3,19.2l4.5,9.3l3.3-1.3l1.3,5.8l5,1.8v5.6l12.6,7.5l5.5,27.5l-5.8,16.8l-7.3,3.9v3.2
		c0.2-0.1,0.4-0.1,0.7-0.1v-2.6l7.2-3.9l5.9-17.2v-0.1l-5.5-27.8v-0.1l-12.4-7.4v-5.8l-5.2-1.8l-1.4-6.3l-3.4,1.4l-4.3-9L542-2h-1.4
		L579.3,19.2z"/>
	<path class="st2" d="M541.9,180.3l1.1,2.1h-15.9l3.1-1.8v-4.7l-3.8-4.1l-0.9-6.8l-9-7.7l2.8-9l-6.3-0.9l-0.6-5.4l-6.8-6.8
		l-1.1-10.2l-0.1-0.1l6-9.5l-0.7-5.7l7.5-2.8l0.9-4.1v-4.5l-4.3-4.8h28.4v-0.7h-29.1l-4.1-4.6l-5-18.8v-0.1l-14.6-12.6l1.5-12
		l-2.7-3.8l6.3-6.3l0.8-5.3l-0.7-0.1l-0.8,5.1l-6.5,6.5l2.9,4.1l-1.5,12.2l14.7,12.7l4.9,18.7v0.1l8.9,10.1v4.1l-0.8,3.7l-7.7,2.8
		l0.7,6l-5.8,9.2l-2.9-2.5h-45.1l-8.7-28.9V93l-1.2-0.9l-0.6-2.9l2.5-4.8l-2.3-6.4h60v-0.7h-59V48l-4.1-5.5l1.5-3.7h0.4v-0.7H444
		l1.7-4.1l0.1-0.1L439.7-2H439l6,35.8l-1.8,4.3h-84.3V-2h-0.7v55.1h-79.6v7.1h-13.8l-5.8,3.1l-3.1-7l-3.7-1.6l-6-14.5l-4.1,5.3
		l-2.6-2.2l3-17.8l-5.8-1.1l-6-10.1l-4.7-1.9V7.7L221.7,4v-6H221v6.2l4.3,3.7v4.9l4.9,2l6,10.2l5.4,1.1l-3,17.6l3.5,2.9l3.8-5
		l5.7,13.6l3.8,1.6l3.3,7.5L265,61h13.7v39.8H130.9v0.7h44.8v44.2l59.3,55.5l0.2-0.3v2.9l8.1,9.7l-3.8,5v5.7l-4.1,6.2l0.4,5
		l-25.4,3.1l0.1,0.7l27.8-3.4l-2.6,3.9l43.7,17.9H312v-9.2h19l17.6,14.4l5.8,11.9l12.2,8.4l6-2.1l2.1-7.7l8.3,0.5l13,8.6
		c3.4,6.3,9.7,18.3,10,18.7c0.1,0.1,0.1,0.3,4.8,3.8v8.5l9.2,8.4l16.4,4.9l0.2-0.7l-16.3-4.9l-8.9-8v-8.5l-0.1-0.1
		c-1.7-1.2-4.4-3.3-4.7-3.6c-0.5-1.1-7.1-13.4-10-18.8l-0.1-0.1l-13.4-9l-9-0.5l-2.2,8l-5.4,1.8l-11.7-8.1l-5.7-11.8l-17.8-14.7H329
		V247h41.2v-71.1h97.4v9.3l2.1,11.1v27.2l-9-4l-12.7,2.9l-7.4-3.8l-2.9,2V219l-8.2-0.4l-1.7-2.3l-4.7,1.1l-6.1-1.1l-3.4-5.6
		l-5.2,1.9l-3.3-3.3v-25.5h-34v0.7h33.4v25.1l3.8,3.8l5.1-1.8l3.3,5.4l6.6,1.1l4.4-1.1l1.7,2.3l7.8,0.4v2.3l3.7-2.5l7.2,3.8
		l12.8-2.8l9.7,4.3l0.3-0.6l3.3,0.9v20.8l6.6,13.1l-5.1,18.1l0.7,0.2l5.3-18.3l-6.6-13.1v-13.1h31.8l2.3,5.2l-2.8,0.6l4.3,3.3
		l-7.5,7.7l-2,10.9h23.5l-2.1,4.3l1.9,4.2l0.6-0.3l-1.8-3.8l2.4-5H502l1.8-10l7.6-8.1l-3.7-2.8l2.1-0.4l-2.6-5.9l1.4-6.3h-1.5
		l-1.4-3.8l1.7-0.2v-4.8l6.4-6V208l3.3-0.9l-0.1-0.7l-3.9,1v3.9l-6.4,6v4.5l-2,0.2l1.8,5h1.1l-1.1,5h-31.9v-7.7l-4.3-1.1v-27
		l-2.1-11.1V183h50.2l1.3,3.6l-3.1,4.3h7.3l0.6,1.1l-6.3,7.5l-1.4,5.7h23.9l-2.1,58.6h0.7l2.1-58.6h29.8l4.3,29.6l3.6,7.2l-3.8,6.8
		l3.2,11.2h-31l1.3,6.8l0.7-0.1l-1.1-6h30.1V260l0.8,2.7l29.7,2.5l1.4,3.9l3.6-5.7h1.5v-0.7h-1.8l-3.1,4.8l-1.1-3l-29.6-2.5
		l-3.8-13.3l3.9-6.8l-3.6-7.4l-4.3-29.5h26.2l-1.7,3.1l6.2,4.8l3.8,7l10.7,10.7l5.4,13.7l0.6-0.3l-5.5-13.8L607,219.4l-3.8-7
		l-5.8-4.5l1.6-3h0.9l8.1-3.7l15,1.1l3.8,4.1h10.7l12.7,12.6l0.5-0.5l-13.1-12.9H627l-3.7-4.1l-15.4-1.1h-0.1l-8,3.8h-0.4l0.1-0.2
		l-0.6-0.4l-0.3,0.5h-12.9v-3.9l4.6-3.1l10.9-4.2l3.5-4.4l3,1.4l8-4.1v-5.2H679V180H541.9V180.3z M358.9,38.9H443l-1.6,3.8l4.1,5.5
		v29h-1.2l2.6,7.1l-2.5,4.8l0.5,2.3l-6-4.5l-0.1-0.1l-9.1,1.7l-6.2-2.6h-64.6V38.9z M279.3,53.8h78.9v61.8h-78.9V53.8z M244.5,101.4
		h34.1v14.9h22v59h-56.1V101.4z M235.3,200.5l-59-55.2v-43.9h67.5v88.8h-8.5V200.5z M300.6,257h-20.9l-42.9-17.6l3-4.5l-3.3,0.4
		l-0.4-4.8l4.1-6.2v-5.7l4-5.2l-8.2-10V191h8.5v-14.9h56.1V257z M369.6,246.4h-41.2v1.4h-17.1v9.2h-10v-81h68.2v70.4H369.6z
		 M381,175.3h-79.6v-59H359V86.4h64.6l6.3,2.7l9-1.7l7.7,6l11.4,37.8h-76.3v-14.9h-22.8v0.7h22v58.3H381z M467.7,175.3h-86V132H459
		l-0.2-0.7l5,1.6l1.3,2.3l-2.8,2.7l5.5,7.4L467.7,175.3L467.7,175.3z M523.6,190l-0.1,0.2h-5.4l2.5-3.5l-1.6-4.3h-50.7V145l-5.3-7.1
		l2.8-2.6l-1.7-3.1l-5.3-1.6l-0.2,0.6l-2.6-8.5h44.6l3.2,2.8l1.1,10.2l6.8,6.8l0.6,5.7l6,0.8l-2.6,8.6l9,7.8l0.9,6.8l3.8,4.1v4
		l-3.8,2.3L523.6,190z M614.8,181v4.8l-7.2,3.8l-3.1-1.5l-3.7,4.7l-10.8,4l-5,3.3v4.3h-43.4V204h-0.7v0.4h-23l1.1-4.6l6.5-7.7
		l-1.1-2.1l1.9-7l0.4-0.2v0.4h17.6l-1.1-2.1h71.6V181z"/>
	<path class="st2" d="M209-2v32.7l2.6,5.7l0.4,0.4h-22.8l-18.7,5.8l-14.6-1.3l-6,1.8l-3.4-1.6l-1.6-5.3c-0.4-0.8-1.8-3.5-2.4-3.8
		c-0.6-0.4-4.6,0-7,0.3l0.1,0.7c2.9-0.4,6.1-0.6,6.5-0.4c0.3,0.2,1.4,2.1,2.1,3.6l1.7,5.5l3.9,1.9l6.1-1.8l14.6,1.3l18.7-5.9h23.5
		l4.7,5.2L208,62l4.2,4l-2,34.3l0.7,0.1l2-34.6l-4.1-3.8l9.1-19.3l-5.9-6.5l-2.5-5.4V-2H209z"/>
	<path class="st2" d="M690.8,115.8l4.6-4.9l0.1,0.1c0.1-0.2,0.1-0.5,0.2-0.7l-1.7-1.1l-1.6-5.5l-4.3-3h-51.4v-5.3
		c-0.2,0.1-0.4,0.3-0.7,0.4v5.6h51.7l3.9,2.7l1.6,5.5l1.4,0.9l-4.7,5v7.4l4.8,5.5l-6.9,3.8l0.4,0.6l7.5-4.3l-5-5.9L690.8,115.8
		L690.8,115.8z"/>
	<path class="st2" d="M778.1,47.7l1.6-4.3l-5-3.2V18.5l-4.3-4.9l-6.5,2.1l-5.3-4.3l-13,19.6v6.8l-7.1,6.6v2.9l-3.3-0.9l-0.1,0.2
		c0,0-1.4,2.3-2.9,4.4c-1.4,2-2.8,2-2.9,2h-32.4l-7,3.5l-10.3,8.4l-4.3,8.7c0,0.3,0,0.6,0,0.9h0.4l4.5-9l10.2-8.2l6.9-3.3h32.2
		c0.1,0,1,0,2.1-0.9v7l-5.9,3.9l-4.9,26H712l0.1-0.5l1.1-14.1l-2.2-1.1l-2.8-20.9h-0.7l2.8,21.4l2.2,1.1l-1.1,13.6l-2.8,10.5v11.8
		l-2.8,1.6v2.3h0.7v-1.9l2.8-1.6v-10.7H734l4.4,3l0.4-0.6l-4.5-3.1h-25v-0.6l2.5-9.3h23.8v-0.7h-14.1l4.5-25.7l6-3.9v-8l0,0
		c0.2-0.2,0.5-0.5,0.7-0.9c1.2-1.8,2.4-3.6,2.8-4.3l0.9,0.2v30.6l2.5,4.3l0.6-0.4l-2.4-4.1V47.8l2.1,0.6v-3.5l7.1-6.6v-7l12.5-18.8
		l5,4.1l6.5-2.1l3.8,4.3v21.7l4.9,3.1l-1.6,4.3l5.3,4.8l0.5-0.5L778.1,47.7z"/>
</g>
<g id="marker_10_">
	<path id="pin_11_" class="st3" d="M557.7,147.4c0.7-1.1,1.1-2.5,1.1-3.9c0-4.1-3.3-7.4-7.4-7.4c-4.1,0-7.4,3.3-7.4,7.4
		c0,1.6,0.5,3,1.3,4.1l6.1,7.4L557.7,147.4z"/>
</g>
<g id="water">
	<path class="st0" d="M377.3,402c-0.1-0.2-0.3-0.3-0.4-0.5c-0.7-0.7-1.6-1.2-2.5-0.9c-0.2,0.5-0.4,0.9-0.6,1.4H377.3z"/>
</g>
</svg>
