<?xml version="1.0" encoding="utf-8"?>
<!-- Generator: Adobe Illustrator 17.0.0, SVG Export Plug-In . SVG Version: 6.00 Build 0)  -->
<!DOCTYPE svg PUBLIC "-//W3C//DTD SVG 1.1//EN" "http://www.w3.org/Graphics/SVG/1.1/DTD/svg11.dtd">
<svg version="1.1" id="icon" xmlns="http://www.w3.org/2000/svg" xmlns:xlink="http://www.w3.org/1999/xlink" x="0px" y="0px"
	 width="200px" height="150px" viewBox="0 0 200 150" enable-background="new 0 0 200 150" xml:space="preserve">
<g>
	<path fill="#BE1E2D" d="M124.416,47.045C102.812,43.824,71.669,63.418,67.76,69.89c-11.752,19.457,9.877,32.477,29.06,29.988
		c20.949-2.719,60.536-25.91,32.456-39.675c-8.091-3.966-20.751-1.011-27.445,4.071c-6.621,5.027-11.097,20.556,1.626,13.843
		c-9.074-9.327,20.082-17.651,17.941-2.601c-1.404,9.87-21.995,14.031-28.888,13.108c-12.851-1.721-14.247-12.116-6.135-20.501
		c8.594-8.882,22.247-14.846,34.393-15.994c30.014-2.836,42.552,22.764,18.032,41.776c-18.549,14.382-48.866,22.85-71.344,13.353
		c-30.6-12.929-8.84-43.727,9.835-54.615c13.923-8.118,30.479-12.894,46.539-13.851C143.382,37.628,142.974,50.252,124.416,47.045"
		/>
</g>
<g>
	<polygon fill="#3C2161" points="28.271,68.498 36.681,63.504 38.973,85.15 51.12,82.021 51.833,88.357 33.552,92.513 	"/>
	<polygon fill="#3C2161" points="50.792,67.562 59.287,70.415 54.106,88.35 48.087,86.092 	"/>
	<polygon fill="#3C2161" points="81.253,65.867 87.888,62.537 90.888,73.395 97.014,64.376 102.051,64.572 95.264,74.29 
		107.174,85.677 101.406,88.93 91.587,77.63 94.718,86.734 88.983,90.483 	"/>
	<polygon fill="#3C2161" points="109.976,63.287 118.397,67.091 108.86,89.217 102.386,87.712 	"/>
	<path fill="#3C2161" d="M61.457,64.953c-0.191,1.833-2.588,3.068-5.354,2.761c-2.765-0.308-4.852-2.044-4.66-3.877
		c0.191-1.833,2.588-3.069,5.354-2.76C59.562,61.386,61.648,63.12,61.457,64.953z"/>
	<g>
		<path fill="#3C2161" d="M134.376,67.628c-3.688-3.92-10.362-5.81-17.367-1.439l1.868,23.807
			C143.252,83.052,135.372,68.685,134.376,67.628z M121.402,84.362l-0.353-11.33C130.241,69.093,130.393,75.738,121.402,84.362z"/>
	</g>
	<g>
		<path fill="#3C2161" d="M86.126,81.44c0.041,2.05,0.072,5.205-0.933,6.956c-2.934,5.11-11.044,5.644-14.771,1.247
			c-2.093-2.47-2.976-8.629-2.933-11.781c0.037-2.73,0.813-5.532,2.702-7.573c2.615-2.826,8.436-4.072,11.73-1.56
			c1.071,0.817,4.713,9.248,3.703,9.492c-0.006,0.002-11.68,2.825-11.68,2.825l-0.038,0.669l0.173,0.968
			c1.843,7.161,9.503,4.766,9.628-1.385l0.576,0.072L86.126,81.44z M78.757,75.06c-0.76-3.469-5.601-3.704-5.355,1.665L78.757,75.06
			z"/>
	</g>
	<path fill="#3C2161" d="M150.233,72.999c-1.28-3.122-5.252-1.417-7.531-2.999c-2.74-1.903,4.628-7.269,5.508-7.853l-0.873-3.217
		c0-0.005-2.36,0.695-3.272,1.083c-1.19,0.506-5.356,2.265-8.016,4.615c-4.211,3.722-8.491,14.36,0.337,15.477
		c2.102,0.266,4.102-1.188,6.171-1.43c3.697-0.432-1.335,4.274-2.586,4.914l-3.985,2.441c-0.029,0.014-0.052,0.025-0.066,0.034
		l2.148,2.963c0,0,5.574-1.603,10.533-9.791C150,76.931,150.647,74.013,150.233,72.999z"/>
	<path fill="#3C2161" d="M76.554,54.198c-4.475-0.968-10.973,0.657-15.586,18.558l-2.271,0.055l-1.585,5.317l2.66,0.327
		l-0.296,11.932l3.987,0.392l2.389-11.591l3.888,0.198l1.841-6.495l-4.432-0.028c0.358-1.862,1.607-6.158,2.245-7.493
		c0.531-1.114,1.483-3.44,2.96-3.651c2.23-0.318-0.06,7.398-0.264,8.52l4.278,0.776C78.637,66.66,83.39,55.678,76.554,54.198z"/>
</g>
<path fill="#402061" d="M173.416,73.192c-1.42-0.59-2.839-1.18-4.259-1.769c-0.986-0.409-2.107-0.09-2.971,0.563
	c-1.035-0.663-2.384-0.766-3.624-0.112c-0.544,0.287-1.088,0.574-1.632,0.861c-0.021-0.284-0.043-0.568-0.064-0.852
	c-0.135-1.795-1.488-3.626-3.491-3.491c-1.292,0.087-2.583,0.174-3.874,0.261c-0.461,0.031-0.864,0.148-1.23,0.306
	c-1.039-0.968-2.362-1.607-3.796-1.881c0.327-0.283,0.657-0.561,0.995-0.83c0.16-0.115,0.648-0.483,0.797-0.583
	c1.53-1.035,2.375-2.747,1.872-4.6c-0.291-1.072-0.582-2.144-0.873-3.217c-0.579-2.135-2.879-3.441-5.011-2.845
	c-4.525,1.266-9.513,3.427-13.029,6.715c-5.123-2.761-11.281-2.542-16.672,0.095c-1.507-0.681-3.015-1.362-4.522-2.043
	c-2.023-0.914-4.365-0.601-5.573,1.461c-0.144,0.246-0.252,0.518-0.337,0.8c-0.022,0.061-0.054,0.11-0.073,0.173
	c-0.083,0.266-0.165,0.532-0.248,0.799c-0.689-1.384-2.167-2.442-3.749-2.504c-1.504-0.058-3.008-0.117-4.512-0.175
	c-2.324-0.09-3.56,1.289-4.734,3.017c-0.111,0.163-0.221,0.326-0.332,0.489c-0.219-0.792-0.437-1.583-0.656-2.375
	c-0.734-2.658-3.652-3.605-5.984-2.434c-0.587,0.295-1.174,0.589-1.762,0.884c0.264-4.411-1.196-8.315-6.434-9.633
	c-7.362-1.524-12.288,2.751-15.619,8.497c-4.873-3.183-13.235-2.349-14.503,3.987c-0.169,0.846-0.182,1.637-0.077,2.378
	c-0.293,0.39-0.5,0.84-0.574,1.348c-0.629,4.306-1.257,8.611-1.886,12.917c-0.825,0.212-1.649,0.425-2.474,0.637
	c-0.583-5.51-1.167-11.02-1.75-16.529c-0.313-2.955-3.251-5.226-6.129-3.517c-2.804,1.665-5.607,3.329-8.411,4.994
	c-1.422,0.844-1.988,2.122-1.956,3.392c-0.022,0.383-0.01,0.781,0.084,1.208c1.761,8.005,3.521,16.01,5.282,24.015
	c0.492,2.239,2.936,3.317,5.011,2.845c6.094-1.385,12.187-2.771,18.281-4.156c0.022-0.005,0.044-0.017,0.066-0.022
	c0.014,0.005,0.028,0.01,0.042,0.016c0.923,0.346,1.891,0.222,2.735-0.194c0.653,1.377,2.128,2.22,3.717,2.377
	c1.329,0.131,2.658,0.261,3.987,0.392c1.623,0.16,3.415-1.232,3.861-2.785c0.757,0.952,1.645,1.822,2.719,2.572
	c3.777,2.638,9.117,2.539,13.179,0.734c1.115-0.496,2.122-1.163,3.017-1.958c1.269,1.187,3.199,1.631,4.801,0.584
	c1.912-1.25,3.823-2.499,5.735-3.749c0.083-0.054,0.159-0.122,0.239-0.182c0.504,0.58,1.009,1.161,1.513,1.741
	c1.203,1.384,3.423,1.49,4.936,0.637c0.128-0.072,0.256-0.144,0.383-0.216c1.31,0.305,2.621,0.609,3.931,0.914
	c1.618,0.376,3.87-0.177,4.6-1.872c0.713-1.653,1.425-3.306,2.138-4.96c0.096,1.227,0.193,2.455,0.289,3.682
	c0.202,2.576,2.455,4.714,5.156,3.928c4.18-1.217,8.769-2.996,12.545-5.662c0.682,0.941,1.365,1.882,2.047,2.823
	c1.068,1.473,2.724,2.431,4.6,1.872c2.035-0.607,3.916-1.78,5.608-3.13c0.533,0.361,1.123,0.647,1.751,0.829
	c1.603,0.466,3.392,0.366,4.984-0.212c0.644,1.053,1.848,1.833,3.024,1.737c1.455-0.118,2.909-0.237,4.364-0.355
	c1.73-0.141,3.711-1.489,3.491-3.491c-0.02-0.184-0.04-0.367-0.06-0.551c0.316,0.613,0.633,1.226,0.949,1.84
	c0.555,1.076,1.835,1.729,3.015,1.729c0.799,0,1.597,0,2.396,0c1.621,0,2.866-1.079,3.367-2.563
	c1.272-3.768,2.544-7.536,3.815-11.304C176.519,75.519,175.09,73.888,173.416,73.192z M76.223,58.343
	c-0.055-0.018-0.079-0.021-0.118-0.031c-0.001-0.002-0.001-0.002-0.002-0.004C76.142,58.322,76.184,58.329,76.223,58.343z
	 M75.98,58.273c0.004,0.003,0.009,0.007,0.012,0.01c-0.009-0.001-0.009,0.001-0.016,0.001c-0.006-0.006-0.012-0.011-0.018-0.017
	C75.965,58.269,75.973,58.271,75.98,58.273z M102.032,75.127c-0.48-0.459-0.959-0.917-1.439-1.376
	c1.121-1.605,2.242-3.21,3.363-4.815C103.315,71,102.673,73.063,102.032,75.127z M148.547,87.046
	c0.018-0.013,0.023-0.019,0.039-0.03c0,0.001,0.001,0.002,0.001,0.004C148.573,87.028,148.562,87.038,148.547,87.046z"/>
<g>
	<g>
		<polygon fill="#FFDD00" points="28.271,68.498 36.681,63.504 38.973,85.15 51.12,82.021 51.833,88.357 33.552,92.513 		"/>
		<path fill="#BE1E2D" d="M51.557,82.021c-0.032-0.281-0.255-0.498-0.552-0.421c-3.884,1-7.769,2-11.653,3.001
			c-0.745-7.032-1.489-14.065-2.233-21.097c-0.034-0.317-0.348-0.56-0.657-0.377c-2.804,1.665-5.607,3.329-8.411,4.994
			c-0.129,0.076-0.189,0.186-0.203,0.301c-0.012,0.058-0.013,0.123,0.002,0.192c1.76,8.005,3.521,16.01,5.282,24.015
			c0.053,0.24,0.315,0.355,0.537,0.305c6.094-1.385,12.187-2.771,18.281-4.156c0.173-0.039,0.341-0.237,0.32-0.421
			C52.032,86.245,51.794,84.133,51.557,82.021z M47.088,88.988c-4.401,1.001-8.803,2.001-13.205,3.002
			c-1.707-7.759-3.413-15.518-5.12-23.278c2.519-1.496,5.038-2.991,7.557-4.487c0.738,6.975,1.477,13.949,2.215,20.924
			c0.03,0.281,0.256,0.497,0.552,0.421c3.886-1.001,7.771-2.001,11.657-3.002c0.204,1.816,0.408,3.633,0.613,5.449
			c-0.32,0.073-0.641,0.146-0.961,0.219C49.294,88.487,48.191,88.737,47.088,88.988z"/>
	</g>
	<g>
		<polygon fill="#FFDD00" points="50.792,67.562 59.287,70.415 54.106,88.35 48.087,86.092 		"/>
		<path fill="#BE1E2D" d="M59.403,69.994c-2.832-0.951-5.664-1.902-8.496-2.853c-0.09-0.03-0.167-0.024-0.237-0.004
			c-0.145,0.019-0.271,0.112-0.299,0.309c-0.902,6.177-1.803,12.353-2.705,18.53c-0.037,0.253,0.06,0.445,0.305,0.537
			c2.007,0.753,4.013,1.505,6.019,2.258c0.225,0.084,0.475-0.092,0.537-0.305c1.727-5.978,3.454-11.957,5.181-17.935
			C59.777,70.293,59.626,70.069,59.403,69.994z M53.817,87.777c-1.75-0.657-3.501-1.313-5.251-1.97
			c0.86-5.889,1.719-11.778,2.579-17.667c2.536,0.852,5.071,1.703,7.607,2.555C57.107,76.389,55.462,82.083,53.817,87.777z"/>
	</g>
	<g>
		<polygon fill="#FFDD00" points="81.253,65.867 87.888,62.537 90.888,73.395 97.014,64.376 102.051,64.572 95.264,74.29 
			107.174,85.677 101.406,88.93 91.587,77.63 94.718,86.734 88.983,90.483 		"/>
		<path fill="#BE1E2D" d="M107.483,85.368c-3.71-3.547-7.42-7.093-11.129-10.64c-0.173-0.165-0.346-0.331-0.519-0.496
			c0.703-1.007,1.407-2.014,2.11-3.021c1.494-2.139,2.988-4.279,4.483-6.418c0.2-0.286-0.071-0.645-0.377-0.657
			c-1.504-0.058-3.008-0.117-4.512-0.175c-0.954-0.037-1.077,0.455-1.593,1.216c-1.629,2.398-3.258,4.796-4.887,7.194
			c-0.916-3.316-1.833-6.633-2.749-9.949c-0.079-0.285-0.391-0.386-0.641-0.261c-2.212,1.11-4.424,2.22-6.636,3.331
			c-0.138,0.069-0.2,0.177-0.214,0.29c-0.004,0.023,0,0.048,0,0.073c0.002,0.024,0.002,0.047,0.007,0.071
			c0.004,0.02-0.001,0.037,0.006,0.058c2.577,8.205,5.153,16.41,7.73,24.615c0.081,0.257,0.397,0.421,0.641,0.261
			c1.912-1.25,3.823-2.499,5.735-3.749c0.157-0.103,0.266-0.303,0.201-0.493c-0.804-2.337-1.608-4.674-2.411-7.012
			c2.79,3.211,5.58,6.422,8.37,9.632c0.129,0.148,0.367,0.16,0.529,0.068c1.923-1.084,3.845-2.169,5.768-3.253
			C107.636,85.917,107.685,85.561,107.483,85.368z M101.501,88.375c-0.539-0.62-1.077-1.24-1.616-1.859
			c-2.663-3.065-5.327-6.13-7.99-9.194c-0.284-0.327-0.87,0.017-0.729,0.425c0.974,2.831,1.948,5.663,2.921,8.494
			c0.036,0.105,0.072,0.209,0.108,0.314c-0.593,0.387-1.185,0.775-1.778,1.162c-1.064,0.695-2.127,1.39-3.191,2.086
			c-2.482-7.904-4.964-15.808-7.447-23.712c1.943-0.975,3.886-1.951,5.829-2.926c0.953,3.449,1.906,6.898,2.859,10.346
			c0.106,0.383,0.591,0.408,0.798,0.104c1.654-2.434,3.307-4.869,4.961-7.303c0.312-0.459,0.624-0.918,0.936-1.378
			c0.045-0.066,0.07-0.115,0.088-0.156c0.054,0.026,0.135,0.049,0.289,0.055c1.233,0.048,2.466,0.096,3.699,0.144
			c-2.117,3.031-4.234,6.062-6.35,9.093c-0.109,0.157-0.065,0.402,0.068,0.529c3.831,3.662,7.662,7.325,11.493,10.987
			c-1.494,0.843-2.988,1.685-4.482,2.528C101.811,88.201,101.656,88.288,101.501,88.375z"/>
	</g>
	<g>
		<polygon fill="#FFDD00" points="109.976,63.287 118.397,67.091 108.86,89.217 102.386,87.712 		"/>
		<path fill="#BE1E2D" d="M118.618,66.714c-2.807-1.268-5.615-2.536-8.422-3.805c-0.026-0.012-0.051-0.011-0.077-0.018
			c-0.017-0.005-0.034-0.008-0.051-0.012c-0.028-0.004-0.056-0.01-0.083-0.009c-0.18-0.006-0.362,0.079-0.43,0.299
			c-2.53,8.142-5.06,16.284-7.59,24.425c-0.069,0.22,0.079,0.484,0.305,0.537c2.158,0.502,4.316,1.003,6.474,1.505
			c0.173,0.04,0.415-0.019,0.493-0.201c3.179-7.375,6.359-14.751,9.538-22.126C118.86,67.112,118.853,66.821,118.618,66.714z
			 M108.606,88.71c-0.709-0.165-1.418-0.33-2.127-0.494c-1.179-0.274-2.359-0.548-3.538-0.823c2.435-7.836,4.87-15.672,7.305-23.508
			c2.528,1.142,5.056,2.284,7.584,3.426c-2.122,4.922-4.244,9.845-6.366,14.767C110.512,84.289,109.559,86.5,108.606,88.71z"/>
	</g>
	<g>
		<path fill="#FFDD00" d="M61.457,64.953c-0.191,1.833-2.588,3.068-5.354,2.761c-2.765-0.308-4.852-2.044-4.66-3.877
			c0.191-1.833,2.588-3.069,5.354-2.76C59.562,61.386,61.648,63.12,61.457,64.953z"/>
		<path fill="#BE1E2D" d="M61.893,64.953c0.052-5.027-9.876-6.2-10.871-1.232c-0.534,2.668,2.965,4.107,4.965,4.414
			c2.284,0.35,5.379-0.512,5.891-3.066c0.003-0.016-0.002-0.028,0-0.043C61.882,65.001,61.893,64.981,61.893,64.953z M51.932,64.555
			c-1.291-3.608,9.054-4.603,9.086,0.34C60.167,68.752,53.069,67.734,51.932,64.555z"/>
	</g>
	<g>
		<path fill="#FFDD00" d="M134.376,67.628c-3.688-3.92-10.362-5.81-17.367-1.439l1.868,23.807
			C143.252,83.052,135.372,68.685,134.376,67.628z M121.402,84.362l-0.353-11.33C130.241,69.093,130.393,75.738,121.402,84.362z"/>
		<g>
			<path fill="#BE1E2D" d="M134.685,67.319c-4.94-5.036-12.073-4.985-17.896-1.507c-0.124,0.074-0.228,0.226-0.216,0.377
				c0.623,7.936,1.245,15.871,1.868,23.807c0.022,0.276,0.263,0.505,0.552,0.421c7.007-2.04,15.819-5.724,17.568-13.696
				C137.19,73.854,136.754,69.624,134.685,67.319z M135.72,76.488c-1.457,7.449-9.952,10.992-16.451,12.933
				c-0.419-5.338-0.838-10.676-1.256-16.014c-0.185-2.364-0.371-4.727-0.556-7.091c-0.011-0.14,2.705-1.23,2.919-1.314
				c1.723-0.677,3.576-0.921,5.416-0.874c3.147,0.08,6.105,1.593,8.277,3.807C135.943,70.025,136.223,73.914,135.72,76.488z"/>
			<path fill="#BE1E2D" d="M128.444,73.591c-0.421-3.585-5.618-1.762-7.51-0.98c-0.178,0.074-0.327,0.21-0.32,0.421
				c0.118,3.774,0.235,7.548,0.353,11.323c0.001,0.049,0.013,0.095,0.031,0.14c0.036,0.105,0.104,0.179,0.192,0.226
				c0.117,0.074,0.26,0.096,0.398,0.03c0.057-0.022,0.106-0.058,0.148-0.103C124.377,82.072,128.932,77.75,128.444,73.591z
				 M122.752,72.846c0.791-0.276,1.612-0.458,2.447-0.53c1.305-0.113,2.371,0.402,2.41,1.81c0.041,1.47-0.884,2.962-1.622,4.163
				c-1.144,1.862-2.634,3.505-4.18,5.052c-0.106-3.386-0.211-6.771-0.317-10.157C121.491,73.197,122.415,72.964,122.752,72.846z"/>
		</g>
	</g>
	<g>
		<path fill="#FFDD00" d="M86.126,81.44c0.041,2.05,0.072,5.205-0.933,6.956c-2.934,5.11-11.044,5.644-14.771,1.247
			c-2.093-2.47-2.976-8.629-2.933-11.781c0.037-2.73,0.813-5.532,2.702-7.573c2.615-2.826,8.436-4.072,11.73-1.56
			c1.071,0.817,4.713,9.248,3.703,9.492c-0.006,0.002-11.68,2.825-11.68,2.825l-0.038,0.669l0.173,0.968
			c1.843,7.161,9.503,4.766,9.628-1.385l0.576,0.072L86.126,81.44z M78.757,75.06c-0.76-3.469-5.601-3.704-5.355,1.665L78.757,75.06
			z"/>
		<g>
			<path fill="#BE1E2D" d="M86.563,81.44c-0.003-0.166-0.085-0.277-0.193-0.345c-0.065-0.049-0.142-0.087-0.243-0.091
				c-0.809-0.032-1.616-0.044-2.419-0.144c-0.245-0.03-0.426,0.222-0.436,0.436c-0.189,3.749-4.302,7.436-7.496,3.938
				c-0.675-0.739-1.127-1.844-1.301-2.82c-0.051-0.287-0.137-0.581-0.12-0.874c0.004-0.062,0.005-0.104,0.006-0.147
				c0.837-0.202,1.674-0.405,2.511-0.607c2.723-0.659,5.446-1.317,8.17-1.976c1.681-0.407,1.194-1.645,0.734-3.094
				c-0.749-2.36-1.772-5.337-3.447-7.211c-2.243-2.509-7.032-1.631-9.656-0.49c-7.527,3.272-6.48,14.863-3.3,20.856
				c2.049,3.863,7.193,4.817,11.068,3.712c2.011-0.573,3.703-1.877,4.891-3.574C86.792,86.919,86.606,83.857,86.563,81.44z
				 M85.166,87.381c-0.6,2.044-2.654,3.487-4.535,4.217c-3.513,1.365-8.117,0.391-10.294-2.808
				c-1.947-2.861-2.35-7.193-2.412-10.552c-0.094-5.007,2.541-9.073,7.489-10.218c1.99-0.461,4.131-0.221,5.897,0.812
				c0.95,0.556,1.439,1.947,1.895,2.886c0.665,1.37,1.241,2.786,1.726,4.23c0.197,0.589,0.661,1.831,0.337,1.909
				c-3.813,0.923-7.626,1.844-11.439,2.766c-0.196,0.047-0.31,0.23-0.32,0.421c-0.169,2.974,1.792,6.174,4.912,6.466
				c3.253,0.305,5.344-2.886,5.68-5.746c0.53,0.049,1.061,0.077,1.593,0.095C85.721,83.719,85.694,85.582,85.166,87.381z"/>
			<path fill="#BE1E2D" d="M79.131,75.266c0.005-0.01,0.008-0.019,0.012-0.029c0.042-0.082,0.063-0.179,0.035-0.292
				c-0.391-1.59-1.755-3.043-3.517-2.796c-2.181,0.306-2.748,2.719-2.696,4.576c0.008,0.275,0.274,0.507,0.552,0.421
				c1.785-0.555,3.57-1.11,5.355-1.665c0.105-0.033,0.173-0.095,0.222-0.167C79.108,75.298,79.12,75.283,79.131,75.266z
				 M75.743,73.011c1.174-0.247,2.078,0.757,2.464,1.763c-1.455,0.452-2.91,0.905-4.365,1.357
				C73.895,74.804,74.289,73.317,75.743,73.011z"/>
		</g>
	</g>
	<path fill="#FFDD00" d="M150.233,72.999c-1.28-3.122-5.252-1.417-7.531-2.999c-2.74-1.903,4.571-7.416,5.403-7.855l-0.916-3.136
		c0-0.005-2.456,0.71-3.123,1.005c-1.182,0.524-5.356,2.265-8.016,4.615c-4.211,3.722-8.491,14.36,0.337,15.477
		c2.102,0.266,4.102-1.188,6.171-1.43c3.697-0.432-1.335,4.274-2.586,4.914l-3.985,2.441c-0.029,0.014-0.052,0.025-0.066,0.034
		l2.148,2.963c0,0,5.574-1.603,10.533-9.791C150,76.931,150.647,74.013,150.233,72.999z"/>
	<g>
		<path fill="#FFDD00" d="M76.554,54.198c-4.475-0.968-10.973,0.657-15.586,18.558l-2.271,0.055l-1.585,5.317l2.66,0.327
			l-0.296,11.932l3.987,0.392l2.389-11.591l3.888,0.198l1.841-6.495l-4.432-0.028c0.358-1.862,1.607-6.158,2.245-7.493
			c0.531-1.114,1.483-3.44,2.96-3.651c2.23-0.318-0.06,7.398-0.264,8.52l4.278,0.776C78.637,66.66,83.39,55.678,76.554,54.198z"/>
		<path fill="#BE1E2D" d="M76.67,53.777c-3.412-0.706-6.444,0.506-8.837,2.976c-2.002,2.066-3.396,4.751-4.491,7.381
			c-0.871,2.092-1.59,4.233-2.224,6.407c-0.132,0.459-0.259,0.919-0.382,1.381c-0.138,0.506,0.387,0.393-0.356,0.411
			c-0.561,0.014-1.121,0.027-1.682,0.041c-0.198,0.005-0.364,0.13-0.421,0.32c-0.528,1.772-1.057,3.545-1.585,5.317
			c-0.089,0.298,0.15,0.519,0.421,0.552c0.738,0.091,1.476,0.181,2.214,0.272c-0.096,3.85-0.191,7.7-0.287,11.55
			c-0.006,0.255,0.205,0.414,0.436,0.436c1.329,0.131,2.658,0.261,3.987,0.392c0.182,0.018,0.385-0.145,0.421-0.32
			c0.574-2.787,1.148-5.573,1.723-8.36c0.198-0.963,0.397-1.925,0.595-2.888c0.065,0,0.146,0.002,0.257,0.008
			c0.445,0.023,0.891,0.045,1.336,0.068c0.648,0.033,1.296,0.066,1.944,0.099c0.194,0.01,0.37-0.141,0.421-0.32
			c0.614-2.165,1.227-4.33,1.841-6.495c0.078-0.275-0.139-0.551-0.421-0.552c-1.299-0.008-2.599-0.016-3.898-0.024
			c0.669-3.266,1.593-7.405,3.886-9.825c1.865-1.969,1.033,3.379,0.939,3.867c-0.237,1.227-0.591,2.427-0.838,3.651
			c-0.044,0.216,0.059,0.492,0.305,0.537c1.426,0.259,2.852,0.517,4.278,0.776c0.187,0.034,0.398-0.017,0.493-0.201
			C78.936,66.992,84.266,55.689,76.67,53.777z M77.029,68.669c-0.197,0.435-0.405,0.864-0.615,1.292
			c-0.094,0.19-0.19,0.38-0.287,0.569c-1.168-0.212-2.336-0.424-3.504-0.636c0.542-2.059,2.433-8.075,0.213-8.565
			c-2.018-0.445-3.172,2.44-3.82,3.821c-1.104,2.353-1.772,5.06-2.289,7.597c-0.056,0.277,0.123,0.551,0.421,0.552
			c1.285,0.008,2.571,0.016,3.856,0.024c-0.484,1.709-0.969,3.417-1.453,5.126c-0.046,0.161-0.091,0.322-0.137,0.483
			c-0.192-0.01-0.384-0.02-0.576-0.029c-0.995-0.051-1.991-0.101-2.986-0.152c-0.183-0.009-0.383,0.139-0.421,0.32
			c-0.574,2.787-1.148,5.573-1.723,8.36c-0.197,0.957-0.394,1.914-0.592,2.87c-0.068-0.003-0.153-0.009-0.276-0.021
			c-0.457-0.045-0.914-0.09-1.371-0.135c-0.516-0.051-1.032-0.101-1.547-0.152c0.096-3.846,0.191-7.693,0.286-11.539
			c0.006-0.259-0.205-0.408-0.436-0.436c-0.698-0.086-1.397-0.172-2.095-0.258c0.354-1.187,0.708-2.374,1.062-3.562
			c0.08-0.27,0.161-0.539,0.241-0.809c0.019-0.064,0.034-0.108,0.048-0.151c0.647-0.016,1.293-0.031,1.94-0.047
			c0.193-0.005,0.371-0.13,0.421-0.32c1.744-6.649,5.558-20.218,15.049-18.253c5.009,1.261,3.025,7.713,1.797,11.128
			C77.878,66.739,77.463,67.709,77.029,68.669z"/>
	</g>
</g>
<g>
	<polygon fill="#FFDD00" points="168.229,74.79 166.543,81.769 164.325,74.888 160.598,76.854 166.277,87.863 168.672,87.863 
		172.488,76.559 	"/>
	<path fill="#BE1E2D" d="M172.593,76.178c-1.42-0.59-2.839-1.18-4.259-1.769c-0.195-0.081-0.441,0.086-0.487,0.276
		c-0.453,1.875-0.906,3.751-1.359,5.626c-0.594-1.842-1.188-3.685-1.782-5.527c-0.081-0.25-0.349-0.359-0.581-0.236
		c-1.242,0.655-2.484,1.311-3.727,1.966c-0.186,0.098-0.223,0.271-0.175,0.425c0.007,0.038,0.013,0.077,0.033,0.117
		c1.893,3.669,3.786,7.339,5.678,11.008c0.063,0.122,0.208,0.196,0.342,0.196c0.799,0,1.597,0,2.396,0
		c0.184,0,0.325-0.122,0.382-0.291c1.272-3.768,2.544-7.536,3.815-11.304C172.945,76.441,172.783,76.256,172.593,76.178z
		 M168.657,86.673c-0.089,0.265-0.179,0.529-0.268,0.794c-0.305,0-0.61,0-0.914,0c-0.316,0-0.633,0-0.949,0
		c-0.004,0-0.005,0.001-0.008,0.001c-0.141-0.273-0.282-0.547-0.423-0.82c-0.654-1.267-1.307-2.535-1.961-3.802
		c-1.001-1.941-2.003-3.883-3.004-5.824c0.988-0.521,1.976-1.043,2.964-1.564c0.69,2.139,1.379,4.278,2.068,6.416
		c0.115,0.358,0.667,0.397,0.763,0c0.527-2.181,1.054-4.363,1.581-6.544c1.164,0.483,2.327,0.967,3.491,1.45
		c-0.66,1.955-1.32,3.911-1.98,5.866C169.563,83.988,169.11,85.331,168.657,86.673z"/>
</g>
<g>
	<path fill="#FFDD00" d="M152.18,86.619c-0.285,0.519-0.922,0.905-1.909,1.158c-0.911,0.216-1.767,0.225-2.573,0.03
		c-0.807-0.195-1.314-0.577-1.521-1.144c-0.208-0.508-0.142-1.002,0.195-1.481c0.339-0.478,0.897-0.845,1.676-1.099
		c0.442-0.156,0.897-0.244,1.365-0.264c0.468-0.019,0.897,0.014,1.287,0.103s0.734,0.231,1.033,0.426
		c0.3,0.195,0.501,0.44,0.605,0.733C152.519,85.588,152.466,86.102,152.18,86.619z"/>
	<path fill="#BE1E2D" d="M151.838,86.419c-0.901,1.345-4.226,1.708-5.213,0.276c-0.951-1.38,1.219-2.139,1.974-2.364
		C149.85,83.958,152.789,84.266,151.838,86.419c-0.204,0.462,0.478,0.865,0.683,0.399c1.766-4-5.13-4.282-6.694-1.475
		c-0.754,1.353,0.629,2.514,1.765,2.845c1.581,0.459,3.959,0.078,4.929-1.37C152.807,86.394,152.121,85.998,151.838,86.419z"/>
</g>
<g>
	<polygon fill="#FFDD00" points="153.501,72.144 157.375,71.883 157.806,77.628 161.896,76.322 162.326,80.763 158.021,80.501 
		158.882,88.336 154.518,88.691 155.228,80.828 150.918,81.023 150.703,77.107 154.793,77.628 	"/>
	<g>
		<path fill="#BE1E2D" d="M150.654,72.883c-0.007-0.026-0.023-0.042-0.033-0.064c-0.005-0.014-0.004-0.026-0.011-0.04
			c-0.673-1.377-1.75-1.964-3.225-2.223c-1.306-0.229-5.31,0.047-4.782-2.149c0.546-2.27,3.778-4.772,5.721-5.886
			c0.167-0.096,0.255-0.307,0.201-0.493c-0.305-1.045-0.611-2.091-0.916-3.136c-0.067-0.228-0.305-0.368-0.537-0.305
			c-4.364,1.197-9.171,3.289-12.264,6.667c-2.559,2.795-4.578,7.122-3.868,10.968c0.318,1.725,1.549,3.007,3.099,3.718
			c3.27,1.499,5.681-0.622,8.893-0.855c1.195-0.087-1.282,2.599-1.488,2.796c-0.559,0.535-1.159,1.004-1.818,1.408
			c-1.301,0.797-2.578,1.69-3.927,2.4c-0.196,0.103-0.292,0.41-0.157,0.597c0.716,0.987,1.432,1.975,2.148,2.963
			c0.114,0.158,0.292,0.26,0.493,0.201c2.337-0.697,4.424-2.428,6.153-4.07c1.963-1.863,3.612-4.119,4.95-6.463
			C150.224,77.276,151.204,74.791,150.654,72.883z M145.983,82.259c-1.531,1.966-3.381,3.708-5.47,5.067
			c-0.708,0.461-1.482,0.893-2.286,1.182c-0.002-0.003-0.003-0.004-0.005-0.007c-0.248-0.342-0.496-0.683-0.744-1.025
			c-0.305-0.42-0.61-0.841-0.914-1.261c2.454-1.32,4.952-2.921,6.755-5.04c0.428-0.503,1.718-2.237,0.566-2.758
			c-0.861-0.389-1.807-0.122-2.68,0.107c-2.146,0.561-3.757,1.482-6.057,0.891c-5.849-1.502-3.029-8.877-0.774-12.204
			c2.721-4.014,7.927-6.353,12.516-7.663c0.195,0.668,0.39,1.337,0.586,2.005c0.061,0.208,0.087,0.334,0.1,0.409
			c-0.195,0.13-0.385,0.27-0.572,0.408c-1.675,1.234-3.266,2.66-4.495,4.345c-0.793,1.087-1.325,2.613-0.117,3.594
			c2.216,1.799,5.945-0.049,7.429,2.853C150.666,76.225,147.71,80.043,145.983,82.259z"/>
		<path fill="#BE1E2D" d="M162.292,76.323c-0.024-0.244-0.236-0.466-0.501-0.382c-1.21,0.386-2.419,0.772-3.629,1.159
			c-0.13-1.739-0.261-3.478-0.391-5.217c-0.015-0.203-0.169-0.411-0.396-0.396c-1.292,0.087-2.583,0.174-3.874,0.261
			c-0.032,0.002-0.056,0.015-0.084,0.023c-0.002,0.001-0.004,0.001-0.006,0.002c-0.043,0.013-0.082,0.029-0.115,0.053
			c-0.02,0.013-0.037,0.029-0.055,0.045c-0.01,0.01-0.021,0.018-0.03,0.029c-0.08,0.086-0.126,0.203-0.092,0.349
			c0.386,1.639,0.772,3.279,1.158,4.918c-1.192-0.152-2.383-0.304-3.575-0.456c-0.206-0.026-0.406,0.2-0.396,0.396
			c0.072,1.305,0.143,2.611,0.215,3.917c0.011,0.208,0.171,0.406,0.396,0.396c1.292-0.059,2.584-0.117,3.877-0.176
			c-0.224,2.483-0.448,4.965-0.672,7.448c-0.018,0.203,0.194,0.412,0.396,0.396c1.455-0.118,2.909-0.237,4.364-0.355
			c0.196-0.016,0.421-0.169,0.396-0.396c-0.271-2.471-0.543-4.942-0.814-7.412c1.288,0.078,2.575,0.156,3.863,0.234
			c0.2,0.012,0.416-0.19,0.396-0.396C162.579,79.283,162.435,77.802,162.292,76.323z M157.41,77.628
			c0.018,0.245,0.24,0.465,0.501,0.382c1.213-0.387,2.427-0.775,3.64-1.162c0.113,1.164,0.226,2.328,0.339,3.493
			c-1.29-0.078-2.579-0.157-3.869-0.235c-0.198-0.012-0.418,0.19-0.396,0.396c0.274,2.491,0.547,4.983,0.821,7.475
			c-1.165,0.095-2.329,0.189-3.494,0.284c0.223-2.477,0.447-4.955,0.67-7.432c0.019-0.208-0.194-0.405-0.396-0.396
			c-1.312,0.06-2.624,0.119-3.937,0.179c-0.056-1.018-0.112-2.036-0.168-3.055c1.223,0.156,2.446,0.312,3.67,0.468
			c0.267,0.034,0.434-0.277,0.382-0.501c-0.394-1.672-0.788-3.344-1.182-5.017c1.006-0.068,2.012-0.136,3.018-0.204
			C157.144,74.078,157.277,75.853,157.41,77.628z"/>
	</g>
</g>
</svg>
